<?xml version="1.0" encoding="UTF-8" standalone="no"?>
<!-- Created with Inkscape (http://www.inkscape.org/) -->

<svg
   xmlns:dc="http://purl.org/dc/elements/1.1/"
   xmlns:cc="http://creativecommons.org/ns#"
   xmlns:rdf="http://www.w3.org/1999/02/22-rdf-syntax-ns#"
   xmlns:svg="http://www.w3.org/2000/svg"
   xmlns="http://www.w3.org/2000/svg"
   xmlns:sodipodi="http://sodipodi.sourceforge.net/DTD/sodipodi-0.dtd"
   xmlns:inkscape="http://www.inkscape.org/namespaces/inkscape"
   width="210mm"
   height="297mm"
   id="svg2"
   version="1.1"
   inkscape:version="0.48.2 r9819"
   sodipodi:docname="formel_t0.svg"
   inkscape:export-filename="/Users/Matze/Documents/Uni/UHD/3_Semester/robotik/website/formel_t0.png"
   inkscape:export-xdpi="90"
   inkscape:export-ydpi="90">
  <defs
     id="defs4" />
  <sodipodi:namedview
     id="base"
     pagecolor="#ffffff"
     bordercolor="#666666"
     borderopacity="1.0"
     inkscape:pageopacity="0.0"
     inkscape:pageshadow="2"
     inkscape:zoom="0.98994949"
     inkscape:cx="350"
     inkscape:cy="520"
     inkscape:document-units="px"
     inkscape:current-layer="layer1"
     showgrid="false"
     inkscape:window-width="1491"
     inkscape:window-height="935"
     inkscape:window-x="1440"
     inkscape:window-y="22"
     inkscape:window-maximized="0" />
  <metadata
     id="metadata7">
    <rdf:RDF>
      <cc:Work
         rdf:about="">
        <dc:format>image/svg+xml</dc:format>
        <dc:type
           rdf:resource="http://purl.org/dc/dcmitype/StillImage" />
      </cc:Work>
    </rdf:RDF>
  </metadata>
  <g
     inkscape:label="Ebene 1"
     inkscape:groupmode="layer"
     id="layer1">
    <path
       style="fill:#000000"
       d="m 300.51016,569.17132 c -4.50449,-6.50937 -5.99555,-11.96106 -6.08548,-22.25 -0.10045,-11.49297 1.94155,-18.9698 6.67697,-24.44787 4.58488,-5.30391 6.55681,-4.32576 2.77882,1.37839 -3.73177,5.63437 -5.39967,12.54794 -5.35127,22.18143 0.0486,9.66768 1.70251,16.5481 5.36682,22.32612 2.5691,4.05104 2.68681,4.56193 1.05112,4.56193 -1.01309,0 -3.00973,-1.6875 -4.43698,-3.75 z m 132.16482,-3.38317 c 3.64266,-7.10292 3.65815,-7.18669 3.65011,-19.75 -0.007,-11.02208 -0.29763,-13.24725 -2.29885,-17.60437 -1.25992,-2.74315 -3.24723,-6.00565 -4.41624,-7.25 l -2.12547,-2.26246 2.16804,0 c 2.91616,0 7.79572,6.86826 9.81541,13.81576 2.31025,7.94699 1.53455,23.97311 -1.48459,30.67178 -2.43861,5.41064 -5.773,9.51246 -7.73273,9.51246 -0.75191,0 0.19504,-2.78625 2.42432,-7.13317 z m 27.15818,-19.86683 0,-27 4.5,0 c 3.23609,0 4.5,0.40177 4.5,1.43045 0,0.78675 -1.0125,1.57425 -2.25,1.75 l -2.25,0.31955 -0.2681,23.75 -0.2681,23.75 2.5181,0 c 1.57164,0 2.5181,0.56379 2.5181,1.5 0,1.11111 -1.16667,1.5 -4.5,1.5 l -4.5,0 0,-27 z m 85,25.5 c 0,-0.93333 0.94444,-1.5 2.5,-1.5 l 2.5,0 0,-24 0,-24 -2.5,0 c -1.55556,0 -2.5,-0.56667 -2.5,-1.5 0,-1.11111 1.16667,-1.5 4.5,-1.5 l 4.5,0 0,27 0,27 -4.5,0 c -3.33333,0 -4.5,-0.38889 -4.5,-1.5 z m -183.07258,-4.13486 c 2.67197,-3.39686 2.70582,-6.96628 0.0726,-7.65489 -2.26467,-0.59222 -2.74096,-4.21194 -0.65932,-5.01074 2.64202,-1.01384 4.16165,1.11799 4.0649,5.70248 -0.0941,4.45689 -2.50513,9.59801 -4.50123,9.59801 -0.57724,0 -0.11687,-1.18569 1.02305,-2.63486 z m -284.527715,0.86955 c -2.289571,-1.52879 -3.399704,-5.31789 -3.399704,-11.60385 0,-7.89226 1.175066,-11.29785 4.40618,-12.77005 6.412613,-2.92178 10.593816,2.07306 10.593816,12.65529 0,9.36992 -1.85696,12.45329 -7.499996,12.45329 -1.65,0 -3.495133,-0.3306 -4.100296,-0.73468 z m 7.043592,-3.4572 c 1.037197,-1.4808 1.556704,-4.4843 1.556704,-9 0,-5.46975 -0.390328,-7.16782 -2.022918,-8.80041 -2.217824,-2.21782 -5.185651,-1.4819 -6.359433,1.57693 -1.324912,3.45266 -0.657347,15.26344 0.95378,16.87456 2.172673,2.17268 4.038979,1.96574 5.871867,-0.65108 z m 254.211693,2.39377 c -5.48362,-6.05933 3.33389,-18.31966 11.18865,-15.55729 3.68662,1.29652 2.4168,2.95394 -1.96344,2.56278 -2.95525,-0.26391 -4.01088,0.17393 -5.75,2.38486 -2.52083,3.20471 -2.74018,6.68555 -0.55877,8.86696 1.83923,1.83923 2.43474,1.89978 5.86347,0.59618 1.97334,-0.75026 2.5651,-0.66182 2.5651,0.38337 0,2.89599 -8.87457,3.49295 -11.34501,0.76314 z m 70,0 c -5.48362,-6.05933 3.33389,-18.31966 11.18865,-15.55729 3.68662,1.29652 2.4168,2.95394 -1.96344,2.56278 -2.95525,-0.26391 -4.01088,0.17393 -5.75,2.38486 -2.52083,3.20471 -2.74018,6.68555 -0.55877,8.86696 1.83923,1.83923 2.43474,1.89978 5.86347,0.59618 1.97334,-0.75026 2.5651,-0.66182 2.5651,0.38337 0,2.89599 -8.87457,3.49295 -11.34501,0.76314 z m 82.13545,-11.42126 -0.29044,-8.25 -8.25,-0.29044 c -10.90248,-0.38383 -10.69591,-2.20956 0.25,-2.20956 l 8.5,0 0,-8.55902 c 0,-5.45136 0.36308,-8.33462 1,-7.94098 0.55,0.33992 1,4.19148 1,8.55902 l 0,7.94098 8,0 c 4.66667,0 8,0.41667 8,1 0,0.58333 -3.33333,1 -8,1 l -8,0 0,8.5 c 0,10.94591 -1.82573,11.15248 -2.20956,0.25 z m -439.159529,2.73805 c -5.25564,-5.25564 -1.115896,-25.84178 6.685561,-33.246 4.340191,-4.11919 6.86553,-4.72549 9.794154,-2.35144 2.175046,1.76317 2.388438,2.68468 2.37893,10.27315 -0.0088,7.0137 -0.453664,9.28814 -2.804141,14.33624 -4.960924,10.65454 -11.744911,15.29765 -16.054504,10.98805 z m 7.132708,-1.73805 c 2.437329,-2.59628 6.182169,-10.43015 6.21442,-13 0.01823,-1.45267 -0.892689,-1.75 -5.361407,-1.75 -6.205936,0 -6.579712,0.57079 -6.602976,10.08333 -0.01854,7.57996 1.703214,8.97733 5.749963,4.66667 z m 7.593335,-18.23782 c 1.383974,-3.60658 1.799843,-11.35069 0.718093,-13.37196 -1.48256,-2.77018 -3.194094,-2.70685 -5.943669,0.21994 -2.028127,2.15884 -6.131377,11.29409 -6.131377,13.65057 0,1.68337 10.699915,1.21366 11.356953,-0.49855 z m 103.309716,20.82115 c -0.36667,-0.36666 -0.66667,-2.39828 -0.66667,-4.5147 0,-3.24227 0.49469,-4.14887 3.14249,-5.75909 1.72837,-1.05108 5.28538,-2.20578 7.90447,-2.566 5.18384,-0.71296 6.81886,-3.00723 4.81347,-6.75432 -1.05566,-1.97252 -4.94086,-2.0939 -9.11043,-0.28461 -1.2465,0.54089 -1.75,0.30714 -1.75,-0.81244 0,-3.8828 10.52482,-5.11735 14,-1.64217 2.42652,2.42652 2.4461,4.21273 0.15897,14.5 -1.512,6.80083 -2.10691,8.0479 -3.96879,8.31955 -1.2046,0.17575 -2.19018,-0.17758 -2.19018,-0.78518 0,-0.78234 -0.56447,-0.80264 -1.93426,-0.0695 -2.15229,1.15187 -9.36028,1.4073 -10.39907,0.36851 z m 12.33333,-4.33333 c 2.66206,-2.66206 2.64419,-6 -0.0321,-6 -3.8267,0 -8.9679,2.78943 -8.9679,4.86564 0,3.51554 5.87796,4.25639 9,1.13436 z m 14.63396,3.4885 c -0.31901,-0.83133 0.24961,-5.55633 1.26361,-10.5 1.79914,-8.77162 1.79849,-8.9885 -0.027,-8.9885 -2.62564,0 -2.34449,-2.79178 0.32029,-3.18045 1.51486,-0.22095 2.44938,-1.32239 3.0286,-3.56955 0.57705,-2.2388 1.43151,-3.25 2.74623,-3.25 1.62271,0 1.82348,0.52418 1.34057,3.5 -0.56371,3.47372 -0.54009,3.5 3.1462,3.5 5.00399,0 4.20255,2.33281 -1.03066,3 l -3.92183,0.5 -1.42728,7.77272 c -1.65183,8.99562 -0.9284,10.89381 3.40015,8.92159 2.21027,-1.00706 2.52713,-0.91798 2.52713,0.7105 0,3.10617 -10.23459,4.53221 -11.36604,1.58369 z m 17.03271,0.84483 c -0.36667,-0.36666 -0.66667,-2.39828 -0.66667,-4.5147 0,-3.24227 0.49469,-4.14887 3.14249,-5.75909 1.72837,-1.05108 5.28538,-2.20578 7.90447,-2.566 5.18384,-0.71296 6.81886,-3.00723 4.81347,-6.75432 -1.05566,-1.97252 -4.94086,-2.0939 -9.11043,-0.28461 -1.2465,0.54089 -1.75,0.30714 -1.75,-0.81244 0,-3.8828 10.52482,-5.11735 14,-1.64217 2.42652,2.42652 2.4461,4.21273 0.15897,14.5 -1.512,6.80083 -2.10691,8.0479 -3.96879,8.31955 -1.2046,0.17575 -2.19018,-0.17758 -2.19018,-0.78518 0,-0.78234 -0.56447,-0.80264 -1.93426,-0.0695 -2.15229,1.15187 -9.36028,1.4073 -10.39907,0.36851 z m 12.33333,-4.33333 c 2.66206,-2.66206 2.64419,-6 -0.0321,-6 -3.8267,0 -8.9679,2.78943 -8.9679,4.86564 0,3.51554 5.87796,4.25639 9,1.13436 z m 13.21018,3.838 c 0.27043,-0.7359 1.53156,-6.4005 2.80251,-12.588 1.93396,-9.41531 2.6106,-11.25 4.14906,-11.25 1.01104,0 1.83825,0.64831 1.83825,1.4407 0,1.25277 0.35872,1.25357 2.75,0.006 5.41954,-2.8271 11.25,-0.98078 11.25,3.56251 0,1.02659 -0.68281,4.93195 -1.51735,8.67858 -0.83455,3.74663 -1.74312,7.82455 -2.01905,9.06205 -0.3138,1.40728 -1.24365,2.25 -2.48265,2.25 -2.32546,0 -2.30725,0.30288 -0.48095,-8 2.0471,-9.3067 1.92983,-12.7288 -0.46223,-13.48801 -2.47374,-0.78514 -5.63581,0.86974 -7.18621,3.76093 -0.65686,1.22485 -1.93159,5.60204 -2.83274,9.72704 -1.42273,6.51252 -1.94536,7.5445 -3.96939,7.838 -1.61362,0.23398 -2.17963,-0.0738 -1.83925,-1 z m 26.78982,-1.01973 c 0,-1.37878 2.96537,-5.21979 8.05738,-10.4366 7.99603,-8.19202 8.05504,-8.29075 7.75,-12.96765 -0.244,-3.74096 -0.8565,-5.12125 -2.97033,-6.69365 -3.94369,-2.93359 -7.50389,-1.6829 -9.79846,3.44217 -1.64888,3.6829 -1.93496,3.89962 -2.86175,2.16789 -1.37471,-2.56868 1.08403,-7.67263 4.43073,-9.19749 9.15606,-4.17178 18.34493,3.67038 15.94777,13.61049 -0.39443,1.63554 -3.9976,5.90614 -8.86006,10.50124 l -8.19528,7.74466 8.75,0.005 c 8.08156,0.005 8.75,0.15812 8.75,2.00533 0,1.87302 -0.66667,2 -10.5,2 -10.12487,0 -10.5,-0.0779 -10.5,-2.18172 z m 47,0.94586 c 0,-0.71955 3.825,-5.11342 8.5,-9.76413 4.675,-4.65071 8.5,-8.80328 8.5,-9.22792 0,-0.42464 -2.7,-0.77208 -6,-0.77208 -4.66667,0 -6,-0.33333 -6,-1.5 0,-1.22899 1.73148,-1.5 9.58333,-1.5 5.61483,0 9.4453,0.39309 9.25,0.94926 -0.18333,0.52209 -4.33162,5.02209 -9.21841,10 -4.88679,4.97791 -8.48679,9.08619 -8,9.12952 0.48679,0.0433 3.73682,0.0109 7.22229,-0.0721 5.63425,-0.13413 6.29851,0.0513 5.98841,1.67122 -0.30433,1.58984 -1.59001,1.85856 -10.0872,2.10829 -7.50132,0.22047 -9.73842,-0.0143 -9.73842,-1.02208 z m 71.77889,-5.04103 c 3.42161,-3.4523 6.22111,-6.63372 6.22111,-7.06983 0,-0.43611 -1.35,-2.75508 -3,-5.15327 -3.60578,-5.24083 -3.63802,-5.5 -0.68414,-5.5 1.66932,0 2.95819,1.14288 4.61666,4.09372 l 2.30079,4.09371 4.1712,-4.09371 c 2.63209,-2.5832 5.07969,-4.08628 6.63334,-4.07357 2.22878,0.0182 1.91715,0.54756 -3.28785,5.58451 -3.1625,3.0604 -5.75,5.74259 -5.75,5.96043 0,0.21784 1.575,2.8582 3.5,5.86746 4.08236,6.38175 4.12543,6.56745 1.52305,6.56745 -1.08732,0 -2.66232,-1.125 -3.5,-2.5 -0.83768,-1.375 -2.19672,-3.60714 -3.0201,-4.96031 l -1.49705,-2.46032 -4.63979,4.96032 c -3.24628,3.47053 -5.41595,4.96031 -7.22406,4.96031 -2.39276,0 -2.12325,-0.46516 3.63684,-6.2769 z m 132.23793,6.0269 c 0.009,-0.1375 1.57668,-4.075 3.48318,-8.75 1.9065,-4.675 3.47393,-9.2875 3.48318,-10.25 0.0249,-2.59027 -3.33336,-2.16766 -6.94869,0.87443 -4.42049,3.7196 -5.00007,2.14115 -0.76782,-2.0911 l 3.53333,-3.53333 11.1,0 c 9.2,0 11.1,0.25676 11.1,1.5 0,1.10465 -1.15253,1.5 -4.37277,1.5 l -4.37277,0 -0.53324,5.25 c -0.29327,2.8875 -0.0816,7.41855 0.47044,10.069 1.09759,5.26999 0.76181,6.26086 -1.78986,5.28169 -1.45324,-0.55766 -1.60245,-1.70703 -1.087,-8.37354 0.3286,-4.24993 0.89468,-8.73965 1.25796,-9.97715 0.57999,-1.97575 0.2993,-2.25 -2.30288,-2.25 -2.91964,0 -3.00444,0.15494 -5.74645,10.5 -2.27902,8.59827 -3.1218,10.5 -4.65326,10.5 -1.02859,0 -1.8626,-0.1125 -1.85335,-0.25 z m -406.01682,-8.75 c 0,-0.62857 6.5,-1 17.5,-1 11,0 17.5,0.37143 17.5,1 0,0.62857 -6.5,1 -17.5,1 -11,0 -17.5,-0.37143 -17.5,-1 z m 0,-10 c 0,-0.62857 6.5,-1 17.5,-1 11,0 17.5,0.37143 17.5,1 0,0.62857 -6.5,1 -17.5,1 -11,0 -17.5,-0.37143 -17.5,-1 z"
       id="path3173"
       inkscape:connector-curvature="0" />
  </g>
</svg>
