<?xml version="1.0" encoding="UTF-8" standalone="no"?>
<!-- Created with Inkscape (http://www.inkscape.org/) -->

<svg
   xmlns:dc="http://purl.org/dc/elements/1.1/"
   xmlns:cc="http://creativecommons.org/ns#"
   xmlns:rdf="http://www.w3.org/1999/02/22-rdf-syntax-ns#"
   xmlns:svg="http://www.w3.org/2000/svg"
   xmlns="http://www.w3.org/2000/svg"
   xmlns:sodipodi="http://sodipodi.sourceforge.net/DTD/sodipodi-0.dtd"
   xmlns:inkscape="http://www.inkscape.org/namespaces/inkscape"
   width="1052.3622"
   height="744.09448"
   id="svg3194"
   version="1.1"
   inkscape:version="0.48.2 r9819"
   sodipodi:docname="formel_t1.svg"
   inkscape:export-filename="/Users/Matze/Documents/Uni/UHD/3_Semester/robotik/website/formel_t1.png"
   inkscape:export-xdpi="90"
   inkscape:export-ydpi="90">
  <defs
     id="defs3196" />
  <sodipodi:namedview
     id="base"
     pagecolor="#ffffff"
     bordercolor="#666666"
     borderopacity="1.0"
     inkscape:pageopacity="0.0"
     inkscape:pageshadow="2"
     inkscape:zoom="0.7"
     inkscape:cx="471.9512"
     inkscape:cy="405.71429"
     inkscape:document-units="px"
     inkscape:current-layer="layer1"
     showgrid="false"
     inkscape:window-width="1288"
     inkscape:window-height="793"
     inkscape:window-x="1460"
     inkscape:window-y="42"
     inkscape:window-maximized="0" />
  <metadata
     id="metadata3199">
    <rdf:RDF>
      <cc:Work
         rdf:about="">
        <dc:format>image/svg+xml</dc:format>
        <dc:type
           rdf:resource="http://purl.org/dc/dcmitype/StillImage" />
        <dc:title></dc:title>
      </cc:Work>
    </rdf:RDF>
  </metadata>
  <g
     inkscape:label="Ebene 1"
     inkscape:groupmode="layer"
     id="layer1"
     transform="translate(0,-308.2677)">
    <path
       style="fill:#000000"
       d="m 408.419,669.45069 c -0.26321,-0.4416 -2.37405,-5.3028 -4.69075,-10.8028 -4.87445,-11.57227 -5.37372,-12.27625 -7.47159,-10.53517 -0.84831,0.70403 -1.54238,0.97837 -1.54238,0.60965 0,-0.75093 5.18621,-5.49361 6.06125,-5.54288 0.30868,-0.0174 2.53112,4.6934 4.93875,10.4684 2.40763,5.775 4.6563,10.5 4.99706,10.5 0.34075,0 5.76078,-10.8 12.04452,-24 l 11.42497,-24 70.01673,0.24304 70.01672,0.24304 -69.08694,0.26376 -69.08694,0.26375 -12.48475,26.18377 c -11.5812,24.28874 -13.86826,28.23314 -15.13665,26.10544 z m 50.04528,-3.3829 c -2.72082,-1.5847 -2.29378,-7.467 0.76407,-10.52488 1.94469,-1.94468 3.34268,-2.44397 6.1727,-2.20455 2.01225,0.17024 3.84208,0.86801 4.06629,1.5506 0.29318,0.89253 -0.46498,1.06653 -2.69984,0.61957 -3.90194,-0.78038 -7.05322,1.77836 -7.05322,5.72696 0,3.0624 2.54405,4.5093 6,3.4124 2.35165,-0.7464 2.73809,1.0028 0.41821,1.893 -2.3285,0.8935 -5.67648,0.687 -7.66821,-0.4731 z m 97,0 c -2.72082,-1.5847 -2.29378,-7.467 0.76407,-10.52488 1.94469,-1.94468 3.34268,-2.44397 6.1727,-2.20455 2.01225,0.17024 3.84208,0.86801 4.06629,1.5506 0.29318,0.89253 -0.46498,1.06653 -2.69984,0.61957 -3.90194,-0.78038 -7.05322,1.77836 -7.05322,5.72696 0,3.0624 2.54405,4.5093 6,3.4124 2.35165,-0.7464 2.73809,1.0028 0.41821,1.893 -2.3285,0.8935 -5.67648,0.687 -7.66821,-0.4731 z m -24.75,-2.3535 c 0,-0.8128 1.16956,-1.5706 2.7011,-1.75 1.78207,-0.2087 3.32239,-1.3844 4.52712,-3.4552 1.77569,-3.05233 1.77015,-3.38971 -0.2011,-12.23944 -2.44885,-10.99393 -2.44026,-10.12176 -0.0998,-10.12176 1.62413,0 2.11754,1.17916 3.13653,7.49586 l 1.20921,7.49585 4.3879,-7.49585 c 3.0739,-5.25114 4.96987,-7.49586 6.33128,-7.49586 1.62922,0 0.71634,2.06108 -5.64717,12.75 -4.1748,7.0125 -8.48517,13.5375 -9.57859,14.5 -2.41781,2.1283 -6.76648,2.3317 -6.76648,0.3164 z m -198.5,-1.5664 c -0.33992,-0.55 0.30852,-1 1.44098,-1 1.89567,0 2.05902,-0.595 2.05902,-7.5 0,-6.83333 -0.17778,-7.5 -2,-7.5 -3.14806,0 -2.3398,-1.40426 1.5,-2.6061 l 3.5,-1.09548 0,9.35079 c 0,8.68409 0.14259,9.35079 2,9.35079 1.1,0 2,0.45 2,1 0,0.55 -2.22344,1 -4.94098,1 -2.71754,0 -5.2191,-0.45 -5.55902,-1 z m 169.5,-9.95619 0,-6.95619 -7.25,-0.34511 -7.25,-0.34512 7.25,-0.19869 7.25,-0.1987 0,-7 c 0,-8.96425 1.81356,-9.16993 2.20431,-0.25 l 0.29569,6.75 7,0.57341 7,0.57342 -7.25,0.17658 -7.25,0.17659 0,7 c 0,4 -0.42857,7 -1,7 -0.57083,0 -1,-2.9854 -1,-6.95619 z m -246,2.2819 c 0,-0.92086 3.15,-4.9229 7,-8.89342 7.7005,-7.94156 8.87272,-11.55957 5,-15.43229 -3.42994,-3.42994 -7.9111,-2.00617 -9.50649,3.02044 -0.35063,1.10473 -1.0551,1.75051 -1.56551,1.43506 -1.70826,-1.05576 -0.95246,-4.52195 1.52655,-7.00095 5.55595,-5.55596 15.54545,-1.0155 15.54545,7.06576 0,3.16482 -0.90107,4.60749 -6.5,10.40698 -3.575,3.70306 -6.5,7.03431 -6.5,7.40277 0,0.36847 2.925,0.66994 6.5,0.66994 5.11111,0 6.5,0.32051 6.5,1.5 0,1.2222 -1.66667,1.5 -9,1.5 -7.74972,0 -9,-0.2326 -9,-1.67429 z m 67,0.20924 c 0,-0.80578 1.35,-7.79651 3,-15.53495 1.65,-7.73844 3,-14.27917 3,-14.53495 0,-0.25578 0.675,-0.46505 1.5,-0.46505 2.08987,0 1.91773,2.02709 -1.5,17.66398 -1.65,7.54911 -3,13.86299 -3,14.03082 0,0.1679 -0.675,0.3052 -1.5,0.3052 -0.825,0 -1.5,-0.65927 -1.5,-1.46505 z m 113,0.69002 c 0,-0.42626 3.375,-4.1275 7.5,-8.22497 4.125,-4.09747 7.5,-7.79871 7.5,-8.22497 0,-0.42627 -2.25,-0.77503 -5,-0.77503 -2.75,0 -5,-0.45 -5,-1 0,-0.58333 3.33333,-1 8,-1 4.4,0 8,0.32754 8,0.72788 0,0.40033 -3.47694,4.22533 -7.72654,8.5 l -7.72654,7.77212 5.72654,0 c 4.42359,0 5.72654,0.34129 5.72654,1.5 0,1.2157 -1.61111,1.5 -8.5,1.5 -4.675,0 -8.5,-0.3488 -8.5,-0.77503 z m -139.72683,-5.22497 c 0.29509,-2.2 0.33612,-4 0.0912,-4 -0.24493,0 -1.77158,0.98053 -3.39254,2.17897 -1.62097,1.19843 -3.28954,1.83663 -3.70794,1.41823 -0.7262,-0.7262 0.36509,-1.77052 4.38736,-4.19852 1.66304,-1.00388 1.53799,-1.24947 -1.41338,-2.77568 -3.32729,-1.72061 -4.30411,-3.623 -1.86029,-3.623 0.75765,0 1.93775,0.675 2.62244,1.5 2.20024,2.65112 3.62826,1.75576 3.18979,-2 -0.30808,-2.63898 -0.0361,-3.5 1.10565,-3.5 1.20018,0 1.39799,0.86674 0.95373,4.17894 l -0.56051,4.17894 3.06004,-2.17894 c 1.683,-1.19842 3.55305,-2.17894 4.15565,-2.17894 2.12852,0 1.05754,1.96834 -1.90437,3.5 -1.65,0.85325 -3,1.75325 -3,2 0,0.24675 1.35,1.14675 3,2 2.96191,1.53166 4.03289,3.5 1.90437,3.5 -0.6026,0 -2.47265,-0.98052 -4.15567,-2.17894 l -3.06004,-2.17894 0.56051,4.17894 c 0.44736,3.33528 0.25032,4.17894 -0.976,4.17894 -1.21535,0 -1.42437,-0.83608 -1,-4 z m 71,0 c 0.29509,-2.2 0.33612,-4 0.0912,-4 -0.24493,0 -1.77158,0.98053 -3.39254,2.17897 -1.62097,1.19843 -3.28954,1.83663 -3.70794,1.41823 -0.7262,-0.7262 0.36509,-1.77052 4.38736,-4.19852 1.66304,-1.00388 1.53799,-1.24947 -1.41338,-2.77568 -3.32729,-1.72061 -4.30411,-3.623 -1.86029,-3.623 0.75765,0 1.93775,0.675 2.62244,1.5 2.20024,2.65112 3.62826,1.75576 3.18979,-2 -0.30808,-2.63898 -0.0361,-3.5 1.10565,-3.5 1.20018,0 1.39799,0.86674 0.95373,4.17894 l -0.56051,4.17894 3.06004,-2.17894 c 1.683,-1.19842 3.55305,-2.17894 4.15565,-2.17894 2.12852,0 1.05754,1.96834 -1.90437,3.5 -1.65,0.85325 -3,1.75325 -3,2 0,0.24675 1.35,1.14675 3,2 2.96191,1.53166 4.03289,3.5 1.90437,3.5 -0.6026,0 -2.47265,-0.98052 -4.15567,-2.17894 l -3.06004,-2.17894 0.56051,4.17894 c 0.44736,3.33528 0.25032,4.17894 -0.976,4.17894 -1.21535,0 -1.42437,-0.83608 -1,-4 z m 92.72683,-8.29327 c 0,-0.7113 2.25,-3.41685 5,-6.01235 5.38641,-5.08378 6.09119,-7.39689 3.08319,-10.1191 -1.52918,-1.38388 -2.3381,-1.50923 -4,-0.6198 -1.14576,0.61319 -2.08319,1.80061 -2.08319,2.63872 0,0.83811 -0.45,1.24572 -1,0.9058 -3.26271,-2.01647 2.16383,-7.17767 6.42279,-6.10874 7.0436,1.76784 7.38144,7.16156 0.82721,13.2065 l -4.75,4.38091 4.75,0.0107 c 3.55082,0.008 4.75,0.38936 4.75,1.51067 0,1.17949 -1.38889,1.5 -6.5,1.5 -4.64932,0 -6.5,-0.36822 -6.5,-1.29327 z m 98,0 c 0,-0.7113 2.25,-3.41685 5,-6.01235 5.38641,-5.08378 6.09119,-7.39689 3.08319,-10.1191 -1.52918,-1.38388 -2.3381,-1.50923 -4,-0.6198 -1.14576,0.61319 -2.08319,1.80061 -2.08319,2.63872 0,0.83811 -0.45,1.24572 -1,0.9058 -3.26271,-2.01647 2.16383,-7.17767 6.42279,-6.10874 7.0436,1.76784 7.38144,7.16156 0.82721,13.2065 l -4.75,4.38091 4.75,0.0107 c 3.55082,0.008 4.75,0.38936 4.75,1.51067 0,1.17949 -1.38889,1.5 -6.5,1.5 -4.64932,0 -6.5,-0.36822 -6.5,-1.29327 z M 116.875,611.50646 c 4.25889,-16.93237 5.63778,-20.4036 9.05607,-22.79787 3.3287,-2.33151 8.35786,-2.00605 10.2265,0.66181 2.15135,3.07147 1.95174,5.20671 -0.78406,8.38727 -2.17047,2.52331 -2.23588,2.93157 -0.89911,5.61119 2.11653,4.24269 0.86489,9.02307 -3.3259,12.70264 -3.97515,3.49023 -9.57694,4.16219 -12.517,1.50148 -1.62545,-1.47101 -1.82257,-1.20712 -2.98787,4 -0.68619,3.0662 -1.57503,5.57491 -1.97521,5.57491 -0.40018,0 1.04278,-7.03864 3.20658,-15.64143 z m 10.62248,5.08073 c 2.91994,-2.04521 5.2168,-6.59358 5.2168,-10.33062 0,-3.41951 -1.33939,-4.59939 -5.22736,-4.60485 -4.16928,-0.006 -3.77837,-1.96193 0.46231,-2.3133 4.26901,-0.35372 6.76505,-3.08181 6.76505,-7.39398 0,-2.15124 -0.58439,-2.90512 -2.65478,-3.42475 -5.28827,-1.32727 -9.126,3.74613 -12.24713,16.19046 -1.99628,7.95942 -2.04666,8.86729 -0.61344,11.05466 1.80479,2.75445 5.07714,3.07874 8.29855,0.82238 z m -78.194309,-0.51603 c -5.776856,-6.8654 -1.610924,-17.92327 6.752395,-17.92327 4.807246,0 6.658711,0.87369 6.658711,3.14217 0,1.59647 -0.332766,1.75011 -1.934259,0.89301 -6.761853,-3.61883 -13.086839,2.67124 -10.052432,9.99695 1.452469,3.50657 5.041844,4.76299 9.163047,3.2074 2.449357,-0.92452 2.823644,-0.82639 2.823644,0.74035 0,2.19023 -1.921557,3.02012 -6.992894,3.02012 -3.04839,0 -4.357283,-0.62745 -6.418212,-3.07673 z m 20.712458,1.30449 c -7.503698,-5.89663 -3.254052,-19.22776 6.129347,-19.22776 9.03705,0 12.82412,14.20598 5.20898,19.53983 -2.81045,1.96851 -8.640394,1.80805 -11.338327,-0.31207 z m 10.141947,-3.45027 c 2.03952,-2.91182 1.98807,-8.64336 -0.0983,-10.94875 -2.31166,-2.55435 -6.866305,-2.35028 -8.788311,0.39377 -3.523273,5.03017 -0.829189,12.77749 4.443292,12.77749 1.849309,0 3.445989,-0.79865 4.443299,-2.22251 z m 9.09506,3.87421 c -2.7749,-2.02905 -1.17163,-3.717 2.28961,-2.41053 1.55062,0.58529 4.05358,0.75439 5.56212,0.37577 3.973884,-0.99738 2.980094,-3.82452 -1.90375,-5.41577 -2.19249,-0.71436 -4.60509,-1.91168 -5.36134,-2.66071 -1.95496,-1.93632 -1.70202,-6.64537 0.44113,-8.21247 3.13149,-2.2898 11.433874,-1.49699 11.433874,1.09184 0,0.78071 -1.67467,1.1837 -4.750004,1.14301 -4.07884,-0.054 -4.75,0.21522 -4.75,1.90512 0,1.40307 1.03587,2.2642 3.60876,3 1.98481,0.56762 4.347314,1.64964 5.250004,2.40448 2.18712,1.82893 2.08563,6.41542 -0.1875,8.47257 -2.221124,2.01009 -9.056914,2.19031 -11.632904,0.30669 z m 505.461644,-0.6517 c 0,-1.33333 0.66667,-2 2,-2 1.33333,0 2,0.66667 2,2 0,1.33333 -0.66667,2 -2,2 -1.33333,0 -2,-0.66667 -2,-2 z m 60.0595,1.25 c 0.0327,-0.4125 1.52984,-7.5 3.32693,-15.75 l 3.26744,-15 9.67307,-0.28621 c 8.15716,-0.24136 9.67306,-0.0455 9.67306,1.25 0,1.25226 -1.4634,1.53621 -7.91714,1.53621 l -7.91713,0 -1.08287,5.04922 c -0.59557,2.77707 -1.08286,5.25207 -1.08286,5.5 0,0.24793 3.15,0.45078 7,0.45078 5.55556,0 7,0.30952 7,1.5 0,1.19851 -1.49079,1.5 -7.41714,1.5 l -7.41713,0 -1.08287,5.04922 c -0.59557,2.77707 -1.08286,5.47707 -1.08286,6 0,0.52293 3.6,0.95078 8,0.95078 6.44444,0 8,0.29167 8,1.5 0,1.2381 -1.83333,1.5 -10.5,1.5 -5.775,0 -10.47323,-0.3375 -10.4405,-0.75 z m -475.5595,-6.25 c -0.40157,-0.64976 4.65628,-1 14.44098,-1 9.37268,0 15.05902,0.3776 15.05902,1 0,0.6205 -5.48033,1 -14.44098,1 -8.54864,0 -14.69316,-0.40803 -15.05902,-1 z m 426,0 c -0.40157,-0.64976 4.65628,-1 14.44098,-1 9.37268,0 15.05902,0.3776 15.05902,1 0,0.6205 -5.48033,1 -14.44098,1 -8.54864,0 -14.69316,-0.40803 -15.05902,-1 z m -271.75,-4.74992 c 44.1375,-0.14409 116.3625,-0.14409 160.5,0 44.1375,0.1441 8.025,0.26199 -80.25,0.26199 -88.275,0 -124.3875,-0.11789 -80.25,-0.26199 z m -154.25,-4.25008 c 0.36586,-0.59197 6.51038,-1 15.05902,-1 8.96065,0 14.44098,0.3795 14.44098,1 0,0.6224 -5.68634,1 -15.05902,1 -9.7847,0 -14.84255,-0.35024 -14.44098,-1 z m 426,0 c 0.36586,-0.59197 6.51038,-1 15.05902,-1 8.96065,0 14.44098,0.3795 14.44098,1 0,0.6224 -5.68634,1 -15.05902,1 -9.7847,0 -14.84255,-0.35024 -14.44098,-1 z m -10.5,-2.5 c 0,-0.83333 0.88889,-1.5 2,-1.5 1.11111,0 2,0.66667 2,1.5 0,0.83333 -0.88889,1.5 -2,1.5 -1.11111,0 -2,-0.66667 -2,-1.5 z m -325,-1.5 c 0,-0.55 0.9,-1 2,-1 1.82222,0 2,-0.66667 2,-7.5 0,-6.83333 -0.17778,-7.5 -2,-7.5 -1.1,0 -2,-0.45 -2,-1 0,-0.55 0.87344,-1 1.94098,-1 1.06754,0 2.2191,-0.45 2.55902,-1 1.71726,-2.77858 2.5,-0.11725 2.5,8.5 0,8.83333 0.14035,9.5 2,9.5 1.1,0 2,0.45 2,1 0,0.55 -2.475,1 -5.5,1 -3.025,0 -5.5,-0.45 -5.5,-1 z m 98.75,-0.0801 c -2.72082,-1.58473 -2.29378,-7.46703 0.76407,-10.52488 1.94469,-1.94468 3.34268,-2.44397 6.1727,-2.20455 2.01225,0.17024 3.84208,0.86801 4.06629,1.5506 0.29318,0.89256 -0.46498,1.06655 -2.69984,0.61957 -3.90194,-0.78038 -7.05322,1.77834 -7.05322,5.72696 0,3.06239 2.54405,4.50928 6,3.4124 2.35165,-0.74639 2.73809,1.00279 0.41821,1.89301 -2.3285,0.89353 -5.67648,0.68697 -7.66821,-0.47311 z m 95.72742,-1.31401 c -3.34604,-5.10671 1.75023,-11.96923 8.46927,-11.40453 1.95432,0.16425 3.42081,0.74864 3.25887,1.29864 -0.16194,0.55 -1.59905,0.86211 -3.19358,0.69358 -1.89946,-0.20075 -3.60825,0.40269 -4.95556,1.75 -4.06447,4.06447 -1.63148,8.78091 3.90262,7.56542 3.16085,-0.69424 4.31033,0.78992 1.45917,1.88401 -3.55822,1.36542 -7.37505,0.6025 -8.94079,-1.78712 z m 86.52258,1.10232 c 0,-0.71049 1.98736,-3.24224 4.41635,-5.62611 5.29639,-5.19802 6.11081,-7.55494 3.50944,-10.15631 -2.52261,-2.52261 -3.38236,-2.43211 -5.77349,0.60772 -2.22067,2.82312 -3.87236,1.68045 -2.16968,-1.50104 1.47903,-2.76359 5.77392,-3.67787 8.94809,-1.90481 1.88612,1.05356 2.64974,2.38905 2.87183,5.02252 0.26835,3.18192 -0.22789,4.05425 -4.39079,7.71858 l -4.69333,4.13124 4.64079,0 c 3.45848,0 4.64079,0.38215 4.64079,1.5 0,1.16667 -1.33333,1.5 -6,1.5 -4.23686,0 -6,-0.3796 -6,-1.29179 z m -207,-2.14179 c 0,-0.81285 1.16956,-1.57058 2.7011,-1.75 1.78207,-0.20876 3.32239,-1.38438 4.52712,-3.45525 1.77569,-3.0523 1.77015,-3.38968 -0.2011,-12.23941 -2.44885,-10.99393 -2.44026,-10.12176 -0.0998,-10.12176 1.62413,0 2.11754,1.17916 3.13653,7.49586 l 1.20921,7.49585 4.3879,-7.49585 c 3.0739,-5.25114 4.96987,-7.49586 6.33128,-7.49586 1.62922,0 0.71634,2.06108 -5.64717,12.75 -4.1748,7.0125 -8.48517,13.5375 -9.57859,14.5 -2.41781,2.1283 -6.76648,2.33166 -6.76648,0.31642 z m -29,-11.52261 0,-6.95619 -7.25,-0.34511 -7.25,-0.34512 7.25,-0.19869 7.25,-0.1987 0,-7 c 0,-8.96425 1.81356,-9.16993 2.20431,-0.25 l 0.29569,6.75 7,0.57341 7,0.57342 -7.25,0.17658 -7.25,0.17659 0,7 c 0,4 -0.42857,7 -1,7 -0.57083,0 -1,-2.9854 -1,-6.95619 z m 98,0 0,-6.95619 -7.25,-0.34511 -7.25,-0.34512 7.25,-0.19869 7.25,-0.1987 0,-7 c 0,-8.96425 1.81356,-9.16993 2.20431,-0.25 l 0.29569,6.75 7,0.57341 7,0.57342 -7.25,0.17658 -7.25,0.17659 0,7 c 0,4 -0.42857,7 -1,7 -0.57083,0 -1,-2.9854 -1,-6.95619 z m -152,2.49114 c 0,-0.80578 1.35,-7.79651 3,-15.53495 1.65,-7.73844 3,-14.27917 3,-14.53495 0,-0.25578 0.675,-0.46505 1.5,-0.46505 2.08987,0 1.91773,2.02709 -1.5,17.66398 -1.65,7.54911 -3,13.86299 -3,14.03084 0,0.16785 -0.675,0.30518 -1.5,0.30518 -0.825,0 -1.5,-0.65927 -1.5,-1.46505 z m 182,0.69002 c 0,-0.42626 3.375,-4.1275 7.5,-8.22497 4.125,-4.09747 7.5,-7.79871 7.5,-8.22497 0,-0.42627 -2.25,-0.77503 -5,-0.77503 -2.75,0 -5,-0.45 -5,-1 0,-0.58333 3.33333,-1 8,-1 4.4,0 8,0.32754 8,0.72788 0,0.40033 -3.47694,4.22533 -7.72654,8.5 l -7.72654,7.77212 5.72654,0 c 4.42359,0 5.72654,0.34129 5.72654,1.5 0,1.21569 -1.61111,1.5 -8.5,1.5 -4.675,0 -8.5,-0.34876 -8.5,-0.77503 z m 99,-0.69002 c 0,-0.80578 1.35,-7.79651 3,-15.53495 1.65,-7.73844 3,-14.27917 3,-14.53495 0,-0.25578 0.675,-0.46505 1.5,-0.46505 2.08987,0 1.91773,2.02709 -1.5,17.66398 -1.65,7.54911 -3,13.86299 -3,14.03084 0,0.16785 -0.675,0.30518 -1.5,0.30518 -0.825,0 -1.5,-0.65927 -1.5,-1.46505 z m -45,-10.53495 c 0,-0.61728 5.16667,-1 13.5,-1 8.33333,0 13.5,0.38272 13.5,1 0,0.61728 -5.16667,1 -13.5,1 -8.33333,0 -13.5,-0.38272 -13.5,-1 z m -224,-6.29327 c 0,-0.7113 2.25,-3.41685 5,-6.01235 5.38641,-5.08378 6.09119,-7.39689 3.08319,-10.1191 -1.52918,-1.38388 -2.3381,-1.50923 -4,-0.6198 -1.14576,0.61319 -2.08319,1.80061 -2.08319,2.63872 0,0.83811 -0.45,1.24572 -1,0.9058 -3.26271,-2.01647 2.16383,-7.17767 6.42279,-6.10874 7.0436,1.76784 7.38144,7.16156 0.82721,13.2065 l -4.75,4.38091 4.75,0.0107 c 3.55082,0.008 4.75,0.38936 4.75,1.51067 0,1.17949 -1.38889,1.5 -6.5,1.5 -4.64932,0 -6.5,-0.36822 -6.5,-1.29327 z m 98,0 c 0,-0.7113 2.25,-3.41685 5,-6.01235 5.38641,-5.08378 6.09119,-7.39689 3.08319,-10.1191 -1.52918,-1.38388 -2.3381,-1.50923 -4,-0.6198 -1.14576,0.61319 -2.08319,1.80061 -2.08319,2.63872 0,0.83811 -0.45,1.24572 -1,0.9058 -3.26271,-2.01647 2.16383,-7.17767 6.42279,-6.10874 7.0436,1.76784 7.38144,7.16156 0.82721,13.2065 l -4.75,4.38091 4.75,0.0107 c 3.55082,0.008 4.75,0.38936 4.75,1.51067 0,1.17949 -1.38889,1.5 -6.5,1.5 -4.64932,0 -6.5,-0.36822 -6.5,-1.29327 z m 96,0.001 c 0,-0.71049 1.98736,-3.24224 4.41635,-5.62611 5.29639,-5.19802 6.11081,-7.55494 3.50944,-10.15631 -2.52261,-2.52261 -3.38236,-2.43211 -5.77349,0.60772 -2.22067,2.82312 -3.87236,1.68045 -2.16968,-1.50104 1.47903,-2.76359 5.77392,-3.67787 8.94809,-1.90481 1.88612,1.05356 2.64974,2.38905 2.87183,5.02252 0.26835,3.18192 -0.22789,4.05425 -4.39079,7.71858 l -4.69333,4.13172 4.64079,0 c 3.45848,0 4.64079,0.38215 4.64079,1.5 0,1.16667 -1.33333,1.5 -6,1.5 -4.23686,0 -6,-0.3796 -6,-1.29179 z m 88,-0.001 c 0,-0.7113 2.25,-3.41685 5,-6.01235 5.38641,-5.08378 6.09119,-7.39689 3.08319,-10.1191 -1.52918,-1.38388 -2.3381,-1.50923 -4,-0.6198 -1.14576,0.61319 -2.08319,1.80061 -2.08319,2.63872 0,0.83811 -0.45,1.24572 -1,0.9058 -3.26271,-2.01647 2.16383,-7.17767 6.42279,-6.10874 7.0436,1.76784 7.38144,7.16156 0.82721,13.2065 l -4.75,4.38091 4.75,0.0107 c 3.55082,0.008 4.75,0.38936 4.75,1.51067 0,1.17949 -1.38889,1.5 -6.5,1.5 -4.64932,0 -6.5,-0.36822 -6.5,-1.29327 z M 361.76133,481.21396 c -1.14903,-1.61366 -2.77587,-4.87616 -3.6152,-7.25 -1.73956,-4.91992 -2.01473,-18.51715 -0.48031,-23.7343 1.34966,-4.58893 5.73819,-11.08177 7.49021,-11.08177 1.02691,0 0.54452,1.68447 -1.76419,6.16052 -2.92089,5.6629 -3.17756,6.93512 -3.17756,15.75 0,10.48833 1.28829,15.49599 5.17483,20.11488 2.3777,2.82574 2.40183,2.9746 0.48216,2.9746 -1.11144,0 -2.96092,-1.32027 -4.10994,-2.93393 z m 111.25248,-2.80283 c 5.54201,-10.23223 4.84431,-27.63501 -1.46305,-36.49288 -2.98405,-4.19071 0.35999,-3.69039 3.58376,0.53618 7.36981,9.66232 6.76898,31.19697 -1.11342,39.90692 -3.50866,3.87703 -4.06501,1.69524 -1.00729,-3.95022 z m 179.74752,2.80283 c -1.14903,-1.61366 -2.77587,-4.87616 -3.6152,-7.25 -1.73956,-4.91992 -2.01473,-18.51715 -0.48031,-23.7343 1.34966,-4.58893 5.73819,-11.08177 7.49021,-11.08177 1.02691,0 0.54452,1.68447 -1.76419,6.16052 -2.92089,5.6629 -3.17756,6.93512 -3.17756,15.75 0,10.48833 1.28829,15.49599 5.17483,20.11488 2.3777,2.82574 2.40183,2.9746 0.48216,2.9746 -1.11144,0 -2.96092,-1.32027 -4.10994,-2.93393 z m 266.25248,-2.80283 c 5.54201,-10.23223 4.84431,-27.63501 -1.46305,-36.49288 -2.98405,-4.19071 0.35999,-3.69039 3.58376,0.53618 7.36981,9.66232 6.76898,31.19697 -1.11342,39.90692 -3.50866,3.87703 -4.06501,1.69524 -1.00729,-3.95022 z m -548.29953,2.30318 c 0,-0.81285 1.16956,-1.57058 2.7011,-1.75 1.78207,-0.20876 3.32239,-1.38438 4.52712,-3.45525 1.77569,-3.0523 1.77015,-3.38968 -0.2011,-12.23941 -2.44885,-10.99393 -2.44026,-10.12176 -0.0998,-10.12176 1.62413,0 2.11754,1.17916 3.13653,7.49586 l 1.20921,7.49585 4.3879,-7.49585 c 3.0739,-5.25114 4.96987,-7.49586 6.33128,-7.49586 1.62922,0 0.71634,2.06108 -5.64717,12.75 -4.1748,7.0125 -8.48517,13.5375 -9.57859,14.5 -2.41781,2.1283 -6.76648,2.33166 -6.76648,0.31642 z m 44.0318,-0.10213 c 0.0175,-0.53036 0.6925,-1.8378 1.5,-2.90542 2.01244,-2.66068 1.8405,-4.22825 -0.5318,-4.84862 -2.12048,-0.55452 -2.70732,-3.15507 -0.9562,-4.23732 2.2144,-1.36857 4.18176,1.80874 3.6366,5.87316 -0.45011,3.35585 -3.73941,8.87154 -3.6486,6.1182 z m 283,0 c 0.0175,-0.53036 0.6925,-1.8378 1.5,-2.90542 2.01244,-2.66068 1.8405,-4.22825 -0.5318,-4.84862 -2.12048,-0.55452 -2.70732,-3.15507 -0.9562,-4.23732 2.2144,-1.36857 4.18176,1.80874 3.6366,5.87316 -0.45011,3.35585 -3.73941,8.87154 -3.6486,6.1182 z m -573.5318,-1.46429 c -0.33992,-0.55 0.30852,-1 1.44098,-1 1.89567,0 2.05902,-0.59501 2.05902,-7.5 0,-6.83333 -0.17778,-7.5 -2,-7.5 -3.14806,0 -2.3398,-1.40426 1.5,-2.6061 l 3.5,-1.09548 0,9.35079 c 0,8.68412 0.14259,9.35079 2,9.35079 1.1,0 2,0.45 2,1 0,0.55 -2.22345,1 -4.94099,1 -2.71754,0 -5.21909,-0.45 -5.55901,-1 z m 271.25,-0.0801 c -2.72082,-1.58473 -2.29378,-7.46703 0.76407,-10.52488 1.94469,-1.94468 3.34268,-2.44397 6.1727,-2.20455 2.01225,0.17024 3.84208,0.86801 4.06629,1.5506 0.29318,0.89256 -0.46498,1.06655 -2.69984,0.61957 -3.90194,-0.78038 -7.05322,1.77834 -7.05322,5.72696 0,3.06239 2.54405,4.50928 6,3.4124 2.35165,-0.74639 2.73809,1.00279 0.41821,1.89301 -2.3285,0.89353 -5.67648,0.68697 -7.66821,-0.47311 z m 56.72742,-1.31401 c -3.34604,-5.10671 1.75023,-11.96923 8.46927,-11.40453 1.95432,0.16425 3.42081,0.74864 3.25887,1.29864 -0.16194,0.55 -1.59905,0.86211 -3.19358,0.69358 -1.89946,-0.20075 -3.60825,0.40269 -4.95556,1.75 -4.06447,4.06447 -1.63148,8.78091 3.90262,7.56542 3.16085,-0.69424 4.31033,0.78992 1.45917,1.88401 -3.55822,1.36542 -7.37505,0.6025 -8.94079,-1.78712 z m 58.52258,-8.56208 0,-6.95619 -7.25,-0.34511 -7.25,-0.34512 7.25,-0.19869 7.25,-0.1987 0,-7 c 0,-8.96425 1.81356,-9.16993 2.20431,-0.25 l 0.29569,6.75 7,0.57341 7,0.57342 -7.25,0.17658 -7.25,0.17659 0,7 c 0,4 -0.42857,7 -1,7 -0.57083,0 -1,-2.9854 -1,-6.95619 z m 248.42708,-2.31725 c -3.62842,-8.21963 -4.33779,-9.2011 -6.5,-8.99328 -2.37827,0.22859 -2.36675,0.18344 0.57292,-2.24503 1.65,-1.36307 3.25618,-2.48055 3.56928,-2.48328 0.31311,-0.003 2.07247,3.48253 3.90971,7.74503 1.83723,4.2625 3.71024,8.16919 4.16224,8.68153 0.45924,0.52054 5.00749,-7.75186 10.30895,-18.75 l 9.48712,-19.68153 64.03135,0 c 42.0209,0 64.03135,0.34375 64.03135,1 0,0.65614 -21.77692,1 -63.33075,1 l -63.33075,0 -10.3385,21.5 c -5.68617,11.825 -10.82483,21.48945 -11.41925,21.47656 -0.59441,-0.0129 -2.91356,-4.17539 -5.15367,-9.25 z m -655.97492,4.58274 c -2.2829,-2.2829 -1.5653,-14.04803 1.23873,-20.3093 2.51045,-5.6057 6.85587,-10 9.88877,-10 7.78529,0 6.92666,18.37538 -1.30818,27.99594 -3.7474,4.37799 -6.99061,5.14207 -9.81932,2.31336 z m 8.21111,-3.82042 c 1.20452,-2.19388 2.49682,-5.22638 2.87179,-6.73888 0.66779,-2.69369 0.58958,-2.75 -3.81967,-2.75 -3.18221,0 -4.6793,0.46357 -5.1084,1.58179 -0.83578,2.17801 -0.76583,10.92604 0.0943,11.78611 1.48951,1.48951 3.86203,-0.0541 5.96204,-3.87902 z m 4.88347,-13.81909 c 0.32166,-1.28162 0.44274,-4.31912 0.26905,-6.75 -0.25953,-3.63231 -0.66866,-4.41979 -2.29628,-4.41979 -2.08583,0 -5.78818,5.64178 -7.05457,10.75 -0.66925,2.69956 -0.59758,2.75 3.9076,2.75 3.97215,0 4.66801,-0.31338 5.1742,-2.33021 z m 136.10756,18.65117 c -1.31325,-1.31325 -0.60731,-6.05351 1.13654,-7.63167 0.98496,-0.89138 4.16072,-2.12894 7.05724,-2.75013 4.87946,-1.04646 5.24383,-1.32451 4.95916,-3.7843 -0.23666,-2.04501 -0.92758,-2.72645 -3.00779,-2.96651 -1.4853,-0.17141 -3.6228,0.18193 -4.75,0.78518 -1.64255,0.87907 -2.04945,0.79903 -2.04945,-0.40316 0,-3.71397 9.45457,-4.93553 12.46381,-1.61036 1.83944,2.03256 1.80881,2.77804 -0.57827,14.07237 l -0.95793,4.53238 -6.80951,0.20525 c -3.74523,0.11289 -7.10394,-0.0892 -7.4638,-0.44905 z m 10.51696,-3.97595 c 2.73448,-2.47467 2.27799,-4.34501 -1.06048,-4.34501 -3.38911,0 -7.75548,3.14783 -6.71087,4.83805 1.05506,1.70713 5.66324,1.41477 7.77135,-0.49304 z m 12.26836,3.35823 c -0.27369,-0.71322 0.19043,-4.56764 1.03138,-8.56538 1.85161,-8.80226 1.84924,-8.13786 0.029,-8.13786 -0.825,0 -1.5,-0.45 -1.5,-1 0,-0.55 0.69841,-1 1.55202,-1 0.85361,0 2.02263,-1.35 2.59782,-3 1.35474,-3.8862 4.11893,-4.07441 3.67173,-0.25 -0.27506,2.35227 0.0762,2.79576 2.42843,3.06642 3.78724,0.43577 3.46075,1.9883 -0.49844,2.37022 -3.00607,0.28998 -3.33467,0.68643 -4.40401,5.31336 -0.63556,2.75 -1.19876,6.06875 -1.25155,7.375 -0.0856,2.11841 0.22811,2.31018 2.904,1.775 2.16375,-0.43275 3,-0.21867 3,0.76801 0,2.61443 -8.60635,3.7714 -9.56038,1.28523 z m 14.21468,0.61772 c -1.31325,-1.31325 -0.60731,-6.05351 1.13654,-7.63167 0.98496,-0.89138 4.16072,-2.12894 7.05724,-2.75013 4.87946,-1.04646 5.24383,-1.3245 4.95916,-3.7843 -0.23666,-2.04501 -0.92758,-2.72645 -3.00779,-2.96651 -1.4853,-0.17141 -3.6228,0.18193 -4.75,0.78518 -1.64255,0.87907 -2.04945,0.79903 -2.04945,-0.40316 0,-3.71397 9.45457,-4.93553 12.46381,-1.61036 1.83944,2.03256 1.80881,2.77804 -0.57827,14.07237 l -0.95793,4.53238 -6.80951,0.20525 c -3.74523,0.11289 -7.10394,-0.0892 -7.4638,-0.44905 z m 10.51696,-3.97595 c 2.73448,-2.47467 2.27799,-4.34501 -1.06048,-4.34501 -3.38911,0 -7.75548,3.14783 -6.71087,4.83805 1.05506,1.70713 5.66324,1.41477 7.77135,-0.49304 z m 11.82874,3.49125 c 0,-0.64005 0.7721,-5.19144 1.71578,-10.11418 1.64186,-8.56484 3.47254,-11.65344 5.22579,-8.81663 0.57048,0.92306 1.33125,0.92737 3.32533,0.0188 1.42209,-0.64795 3.7438,-0.8874 5.15936,-0.53212 2.20108,0.55244 2.56742,1.18619 2.53011,4.37692 -0.0811,6.93766 -2.39746,15.69221 -4.24611,16.04823 -2.0853,0.40159 -2.09111,0.12396 -0.18688,-8.92844 1.22475,-5.82226 1.27376,-7.40033 0.25,-8.05006 -3.84455,-2.43996 -7.27144,0.79703 -8.88322,8.39098 -0.49849,2.34863 -1.13627,5.28274 -1.4173,6.52024 -0.5197,2.28845 -3.47286,3.21216 -3.47286,1.08626 z m 21,-0.51055 c 0,-0.92086 3.15,-4.9229 7,-8.89342 7.7005,-7.94156 8.87272,-11.55957 5,-15.43229 -3.42994,-3.42994 -7.9111,-2.00617 -9.50649,3.02044 -0.35063,1.10473 -1.0551,1.75051 -1.56551,1.43506 -1.70826,-1.05576 -0.95246,-4.52195 1.52655,-7.00095 5.55595,-5.55595 15.54545,-1.0155 15.54545,7.06576 0,3.16482 -0.90107,4.60749 -6.5,10.40698 -3.575,3.70306 -6.5,7.03431 -6.5,7.40277 0,0.36847 2.925,0.66994 6.5,0.66994 5.11111,0 6.5,0.32051 6.5,1.5 0,1.22222 -1.66667,1.5 -9,1.5 -7.74972,0 -9,-0.23259 -9,-1.67429 z m 98,0.89926 c 0,-0.42626 3.375,-4.1275 7.5,-8.22497 4.125,-4.09747 7.5,-7.79871 7.5,-8.22497 0,-0.42627 -2.25,-0.77503 -5,-0.77503 -2.75,0 -5,-0.45 -5,-1 0,-0.58333 3.33333,-1 8,-1 4.4,0 8,0.32754 8,0.72788 0,0.40033 -3.47694,4.22533 -7.72654,8.5 l -7.72654,7.77212 5.72654,0 c 4.42359,0 5.72654,0.34129 5.72654,1.5 0,1.21569 -1.61111,1.5 -8.5,1.5 -4.675,0 -8.5,-0.34876 -8.5,-0.77503 z m 111.6543,0.096 c -1.31325,-1.31325 -0.60731,-6.05351 1.13654,-7.63167 0.98496,-0.89138 4.16072,-2.12894 7.05724,-2.75013 4.87946,-1.04645 5.24383,-1.3245 4.95916,-3.7843 -0.23666,-2.04501 -0.92758,-2.72645 -3.00779,-2.96651 -1.4853,-0.17141 -3.6228,0.18193 -4.75,0.78518 -1.64255,0.87906 -2.04945,0.79902 -2.04945,-0.40317 0,-3.71397 9.45457,-4.93553 12.46381,-1.61036 1.83944,2.03256 1.80881,2.77804 -0.57827,14.07237 l -0.95793,4.53238 -6.80951,0.20525 c -3.74523,0.11289 -7.10394,-0.0892 -7.4638,-0.44905 z m 10.51696,-3.97595 c 2.73448,-2.47468 2.27799,-4.34502 -1.06048,-4.34502 -3.38911,0 -7.75548,3.14783 -6.71087,4.83805 1.05506,1.70713 5.66324,1.41477 7.77135,-0.49304 z m 13.26836,3.35823 c -0.27369,-0.71322 0.19043,-4.56764 1.03138,-8.56538 1.85161,-8.80227 1.84924,-8.13787 0.029,-8.13787 -0.825,0 -1.5,-0.45 -1.5,-1 0,-0.55 0.69841,-1 1.55202,-1 0.85361,0 2.02263,-1.35 2.59782,-3 1.35474,-3.8862 4.11893,-4.07441 3.67173,-0.25 -0.27506,2.35227 0.0762,2.79576 2.42843,3.06642 3.78724,0.43577 3.46075,1.9883 -0.49844,2.37022 -3.00607,0.28998 -3.33467,0.68643 -4.40401,5.31336 -0.63556,2.75 -1.19876,6.06875 -1.25155,7.375 -0.0856,2.11841 0.22811,2.31018 2.904,1.775 2.16375,-0.43275 3,-0.21867 3,0.76801 0,2.61443 -8.60635,3.7714 -9.56038,1.28523 z m 14.21468,0.61772 c -1.31325,-1.31325 -0.60731,-6.05351 1.13654,-7.63167 0.98496,-0.89138 4.16072,-2.12894 7.05724,-2.75013 4.87946,-1.04645 5.24383,-1.3245 4.95916,-3.7843 -0.23666,-2.04501 -0.92758,-2.72645 -3.00779,-2.96651 -1.4853,-0.17141 -3.6228,0.18193 -4.75,0.78518 -1.64255,0.87906 -2.04945,0.79902 -2.04945,-0.40317 0,-3.71397 9.45457,-4.93553 12.46381,-1.61036 1.83944,2.03256 1.80881,2.77804 -0.57827,14.07237 l -0.95793,4.53238 -6.80951,0.20525 c -3.74523,0.11289 -7.10394,-0.0892 -7.4638,-0.44905 z m 10.51696,-3.97595 c 2.73448,-2.47468 2.27799,-4.34502 -1.06048,-4.34502 -3.38911,0 -7.75548,3.14783 -6.71087,4.83805 1.05506,1.70713 5.66324,1.41477 7.77135,-0.49304 z m 10.82874,3.49124 c 0,-0.64005 0.7721,-5.19144 1.71578,-10.11418 1.64186,-8.56484 3.47254,-11.65344 5.22579,-8.81663 0.57048,0.92306 1.33125,0.92737 3.32533,0.0188 1.42209,-0.64795 3.7438,-0.8874 5.15936,-0.53212 2.20108,0.55244 2.56742,1.18619 2.53011,4.37692 -0.0811,6.93766 -2.39746,15.69221 -4.24611,16.04823 -2.0853,0.40159 -2.09111,0.12396 -0.18688,-8.92844 1.22475,-5.82226 1.27376,-7.40033 0.25,-8.05006 -3.84455,-2.43996 -7.27144,0.79703 -8.88322,8.39098 -0.49849,2.34863 -1.13627,5.28274 -1.4173,6.52024 -0.5197,2.28845 -3.47286,3.21216 -3.47286,1.08626 z m 22,-0.51055 c 0,-0.92086 3.15,-4.9229 7,-8.89342 7.7005,-7.94156 8.87272,-11.55957 5,-15.43229 -3.42994,-3.42994 -7.9111,-2.00617 -9.50649,3.02044 -0.35063,1.10473 -1.0551,1.75051 -1.56551,1.43506 -1.70826,-1.05576 -0.95246,-4.52195 1.52655,-7.00095 5.55595,-5.55595 15.54545,-1.0155 15.54545,7.06576 0,3.16482 -0.90107,4.60749 -6.5,10.40698 -3.575,3.70306 -6.5,7.03431 -6.5,7.40277 0,0.36847 2.925,0.66994 6.5,0.66994 5.11111,0 6.5,0.32051 6.5,1.5 0,1.22222 -1.66667,1.5 -9,1.5 -7.74972,0 -9,-0.23259 -9,-1.67429 z m 41.0595,0.92429 c 0.0327,-0.4125 1.52984,-7.5 3.32693,-15.75 l 3.26744,-15 9.67307,-0.28621 c 8.15716,-0.24136 9.67306,-0.0455 9.67306,1.25 0,1.25226 -1.4634,1.53621 -7.91714,1.53621 l -7.91713,0 -1.08287,5.04922 c -0.59557,2.77707 -1.08286,5.25207 -1.08286,5.5 0,0.24793 3.15,0.45078 7,0.45078 5.55556,0 7,0.30952 7,1.5 0,1.19851 -1.49079,1.5 -7.41714,1.5 l -7.41713,0 -1.08287,5.04922 c -0.59557,2.77707 -1.08286,5.47707 -1.08286,6 0,0.52293 3.6,0.95078 8,0.95078 6.44444,0 8,0.29167 8,1.5 0,1.2381 -1.83333,1.5 -10.5,1.5 -5.775,0 -10.47323,-0.3375 -10.4405,-0.75 z m 50.4405,-0.25 c -0.3912,-0.63298 2.15628,-1 6.94098,-1 l 7.55902,0 0,-6 0,-6 -6.94098,0 c -9.42944,0 -10.12689,-1.83004 -0.84057,-2.20555 l 7.28155,-0.29445 0.29445,-7.28155 c 0.37551,-9.28632 2.20555,-8.58887 2.20555,0.84057 l 0,6.94098 7.05902,0 c 4.45136,0 6.83071,0.36941 6.44098,1 -0.33992,0.55 -3.51648,1 -7.05902,1 l -6.44098,0 0,6 0,6 7,0 c 4,0 7,0.42857 7,1 0,0.62205 -5.64699,1 -14.94098,1 -8.88197,0 -15.19162,-0.40553 -15.55902,-1 z m 74.5,-0.5 c 0,-1 1,-1.5 3,-1.5 l 3,0 0,-11.57945 0,-11.57946 -3,0.65891 c -2.34519,0.51509 -3,0.31416 -3,-0.92054 0,-0.8687 0.69735,-1.57946 1.54966,-1.57946 0.85231,0 2.87731,-0.68656 4.5,-1.52568 l 2.95034,-1.52568 0,14.02568 0,14.02568 3,0 c 2,0 3,0.5 3,1.5 0,1.2 -1.5,1.5 -7.5,1.5 -6,0 -7.5,-0.3 -7.5,-1.5 z m 77.0595,0.75 c 0.0327,-0.4125 1.52984,-7.5 3.32693,-15.75 l 3.26744,-15 9.67307,-0.28621 c 8.15716,-0.24136 9.67306,-0.0455 9.67306,1.25 0,1.25226 -1.4634,1.53621 -7.91714,1.53621 l -7.91713,0 -1.08287,5.04922 c -0.59557,2.77707 -1.08286,5.25207 -1.08286,5.5 0,0.24793 3.15,0.45078 7,0.45078 5.55556,0 7,0.30952 7,1.5 0,1.19851 -1.49079,1.5 -7.41714,1.5 l -7.41713,0 -1.08287,5.04922 c -0.59557,2.77707 -1.08286,5.47707 -1.08286,6 0,0.52293 3.6,0.95078 8,0.95078 6.44444,0 8,0.29167 8,1.5 0,1.2381 -1.83333,1.5 -10.5,1.5 -5.775,0 -10.47323,-0.3375 -10.4405,-0.75 z m -687.5595,-6.25 c -0.40157,-0.64976 4.65628,-1 14.44098,-1 9.37268,0 15.05902,0.3776 15.05902,1 0,0.6205 -5.48033,1 -14.44098,1 -8.54864,0 -14.69316,-0.40803 -15.05902,-1 z m 642.5,-5 c 0,-0.61728 5.16667,-1 13.5,-1 8.33333,0 13.5,0.38272 13.5,1 0,0.61728 -5.16667,1 -13.5,1 -8.33333,0 -13.5,-0.38272 -13.5,-1 z m 75,-2.29327 c 0,-0.7113 2.25,-3.41685 5,-6.01235 5.38641,-5.08378 6.09119,-7.39689 3.08319,-10.1191 -1.52918,-1.38388 -2.3381,-1.50923 -4,-0.6198 -1.14576,0.61319 -2.08319,1.80061 -2.08319,2.63872 0,0.83811 -0.45,1.24572 -1,0.9058 -3.26271,-2.01647 2.16383,-7.17767 6.42279,-6.10874 7.0436,1.76783 7.38144,7.16156 0.82721,13.2065 l -4.75,4.38091 4.75,0.0107 c 3.55082,0.008 4.75,0.38936 4.75,1.51067 0,1.17948 -1.38889,1.5 -6.5,1.5 -4.64932,0 -6.5,-0.36822 -6.5,-1.29327 z m -717.5,-1.70673 c 0.36586,-0.59197 6.51038,-1 15.05902,-1 8.96065,0 14.44098,0.3795 14.44098,1 0,0.6224 -5.68634,1 -15.05902,1 -9.7847,0 -14.84255,-0.35024 -14.44098,-1 z M 336.875,401.50646 c 4.25889,-16.93237 5.63778,-20.4036 9.05607,-22.79787 3.32871,-2.33151 8.35787,-2.00605 10.22651,0.66181 2.15134,3.07147 1.95173,5.20671 -0.78407,8.38727 -2.17046,2.52331 -2.23588,2.93157 -0.89911,5.61119 2.11653,4.24269 0.8649,9.02307 -3.3259,12.70264 -3.97515,3.49023 -9.57694,4.16219 -12.517,1.50148 -1.62545,-1.47101 -1.82257,-1.20712 -2.98787,4 -0.68618,3.0662 -1.57503,5.57491 -1.97521,5.57491 -0.40018,0 1.04278,-7.03864 3.20658,-15.64143 z m 10.62249,5.08073 c 2.91994,-2.04521 5.21679,-6.59358 5.21679,-10.33062 0,-3.41951 -1.33939,-4.59939 -5.22735,-4.60485 -4.16929,-0.006 -3.77838,-1.96193 0.4623,-2.3133 4.26901,-0.35372 6.76505,-3.08181 6.76505,-7.39398 0,-2.15124 -0.58439,-2.90512 -2.65478,-3.42475 -5.28827,-1.32727 -9.126,3.74613 -12.24712,16.19046 -1.99629,7.95942 -2.04667,8.86729 -0.61345,11.05466 1.80479,2.75445 5.07714,3.07874 8.29856,0.82238 z m -223.28321,8.5607 c -0.33992,-0.55 0.30852,-1 1.44098,-1 1.89567,0 2.05902,-0.59501 2.05902,-7.5 0,-6.83333 -0.17778,-7.5 -2,-7.5 -3.14806,0 -2.3398,-1.40426 1.5,-2.6061 l 3.5,-1.09548 0,9.35079 c 0,8.68412 0.14259,9.35079 2,9.35079 1.1,0 2,0.45 2,1 0,0.55 -2.22345,1 -4.94099,1 -2.71754,0 -5.21909,-0.45 -5.55901,-1 z m 179.5,-9.95619 0,-6.95619 -7.25,-0.34511 -7.25,-0.34512 7.25,-0.19869 7.25,-0.1987 0,-7 c 0,-8.96425 1.81356,-9.16993 2.20431,-0.25 l 0.29569,6.75 7,0.57341 7,0.57342 -7.25,0.17658 -7.25,0.17659 0,7 c 0,4 -0.42857,7 -1,7 -0.57083,0 -1,-2.9854 -1,-6.95619 z m -200.54784,2.26549 c -2.2829,-2.2829 -1.5653,-14.04803 1.23873,-20.3093 2.51045,-5.6057 6.85587,-10 9.88877,-10 7.78529,0 6.92666,18.37538 -1.30818,27.99594 -3.7474,4.37799 -6.99061,5.14207 -9.81932,2.31336 z m 8.21111,-3.82042 c 1.20452,-2.19388 2.49682,-5.22638 2.87179,-6.73888 0.66779,-2.69369 0.58958,-2.75 -3.81967,-2.75 -3.18221,0 -4.6793,0.46357 -5.1084,1.58179 -0.83578,2.17801 -0.76583,10.92604 0.0943,11.78611 1.48951,1.48951 3.86203,-0.0541 5.96204,-3.87902 z m 4.88347,-13.81909 c 0.32166,-1.28162 0.44274,-4.31912 0.26905,-6.75 -0.25953,-3.63231 -0.66866,-4.41979 -2.29628,-4.41979 -2.08583,0 -5.78818,5.64178 -7.05457,10.75 -0.66925,2.69956 -0.59758,2.75 3.9076,2.75 3.97215,0 4.66801,-0.31338 5.1742,-2.33021 z m 136.45326,17.33021 c -1.35238,-1.35238 -2,-3.33333 -2,-6.11765 0,-8.0379 10.51919,-14.89079 16.32068,-10.63235 0.93662,0.6875 2.07912,3.275 2.53889,5.75 l 0.83595,4.5 2.17737,-4.89153 c 1.19756,-2.69035 2.41661,-4.6523 2.70902,-4.35989 0.63076,0.63076 -3.42104,9.53396 -4.69803,10.32319 -1.26163,0.77973 -1.0944,5.18009 0.22792,5.99733 0.6115,0.37792 1.48703,0.08 1.94563,-0.66202 0.4586,-0.74204 1.18276,-1.00022 1.60924,-0.57375 0.94201,0.94202 -1.52022,2.63022 -3.86698,2.65136 -0.93517,0.008 -2.10431,-0.7066 -2.59809,-1.58893 -0.82395,-1.47231 -1.15288,-1.47231 -4.00003,0 -4.22639,2.18555 -8.78118,2.02463 -11.20157,-0.39576 z m 11.09571,-0.71561 c 2.63005,-1.55361 2.90429,-2.2208 2.90429,-7.06574 0,-6.46438 -1.3029,-9.21865 -4.36087,-9.21865 -4.11525,0 -8.63913,6.7368 -8.63913,12.8651 0,5.16882 4.53426,6.70452 10.09571,3.41929 z m -84.59571,-4.28439 c -0.40157,-0.64976 4.65628,-1 14.44098,-1 9.37268,0 15.05902,0.3776 15.05902,1 0,0.6205 -5.48033,1 -14.44098,1 -8.54864,0 -14.69316,-0.40803 -15.05902,-1 z m 0,-9 c 0.36586,-0.59197 6.51038,-1 15.05902,-1 8.96065,0 14.44098,0.3795 14.44098,1 0,0.6224 -5.68634,1 -15.05902,1 -9.7847,0 -14.84255,-0.35024 -14.44098,-1 z"
       id="path3285"
       inkscape:connector-curvature="0" />
    <path
       style="fill:none;stroke:#000000;stroke-width:2.4000001;stroke-linecap:butt;stroke-linejoin:miter;stroke-miterlimit:4;stroke-opacity:1;stroke-dasharray:none"
       d="m 252.85714,608.64789 312.85715,0"
       id="path2983"
       inkscape:connector-curvature="0" />
    <path
       inkscape:connector-curvature="0"
       id="path3753"
       d="m 435.01825,616.64789 130.69604,0"
       style="fill:none;stroke:#000000;stroke-width:2;stroke-linecap:butt;stroke-linejoin:miter;stroke-miterlimit:4;stroke-opacity:1;stroke-dasharray:none" />
  </g>
</svg>
