<?xml version="1.0" encoding="UTF-8" standalone="no"?>
<!-- Created with Inkscape (http://www.inkscape.org/) -->

<svg
   xmlns:dc="http://purl.org/dc/elements/1.1/"
   xmlns:cc="http://creativecommons.org/ns#"
   xmlns:rdf="http://www.w3.org/1999/02/22-rdf-syntax-ns#"
   xmlns:svg="http://www.w3.org/2000/svg"
   xmlns="http://www.w3.org/2000/svg"
   xmlns:sodipodi="http://sodipodi.sourceforge.net/DTD/sodipodi-0.dtd"
   xmlns:inkscape="http://www.inkscape.org/namespaces/inkscape"
   width="1052.3622"
   height="744.09448"
   id="svg3306"
   version="1.1"
   inkscape:version="0.48.2 r9819"
   sodipodi:docname="formel_t2.svg"
   inkscape:export-filename="/Users/Matze/Documents/Uni/UHD/3_Semester/robotik/website/formel_t2.png"
   inkscape:export-xdpi="90"
   inkscape:export-ydpi="90">
  <defs
     id="defs3308" />
  <sodipodi:namedview
     id="base"
     pagecolor="#ffffff"
     bordercolor="#666666"
     borderopacity="1.0"
     inkscape:pageopacity="0.0"
     inkscape:pageshadow="2"
     inkscape:zoom="0.98994949"
     inkscape:cx="599.47113"
     inkscape:cy="520"
     inkscape:document-units="px"
     inkscape:current-layer="layer1"
     showgrid="false"
     inkscape:window-width="1414"
     inkscape:window-height="828"
     inkscape:window-x="1480"
     inkscape:window-y="62"
     inkscape:window-maximized="0" />
  <metadata
     id="metadata3311">
    <rdf:RDF>
      <cc:Work
         rdf:about="">
        <dc:format>image/svg+xml</dc:format>
        <dc:type
           rdf:resource="http://purl.org/dc/dcmitype/StillImage" />
        <dc:title></dc:title>
      </cc:Work>
    </rdf:RDF>
  </metadata>
  <g
     inkscape:label="Ebene 1"
     inkscape:groupmode="layer"
     id="layer1"
     transform="translate(0,-308.2677)">
    <path
       style="fill:#000000"
       d="m 490.65805,637.95037 c 0,-0.71049 1.98736,-3.24224 4.41635,-5.62611 5.29639,-5.19802 6.11081,-7.55494 3.50944,-10.15631 -2.52261,-2.52261 -3.38236,-2.43211 -5.77349,0.60772 -2.22067,2.82312 -3.87236,1.68045 -2.16968,-1.50104 1.47903,-2.76359 5.77392,-3.67787 8.94809,-1.90481 1.88612,1.05356 2.64974,2.38905 2.87183,5.02252 0.26835,3.18192 -0.22789,4.05425 -4.39079,7.71858 l -4.69333,4.13124 4.64079,0 c 3.45848,0 4.64079,0.38215 4.64079,1.5 0,1.16667 -1.33333,1.5 -6,1.5 -4.23686,0 -6,-0.3796 -6,-1.29179 z m 72,0.29179 c 0,-0.55 0.9,-1 2,-1 1.82222,0 2,-0.66667 2,-7.5 0,-6.83333 -0.17778,-7.5 -2,-7.5 -1.1,0 -2,-0.45 -2,-1 0,-0.55 0.87344,-1 1.94098,-1 1.06754,0 2.2191,-0.45 2.55902,-1 1.71726,-2.77858 2.5,-0.11725 2.5,8.5 0,8.83333 0.14035,9.5 2,9.5 1.1,0 2,0.45 2,1 0,0.55 -2.475,1 -5.5,1 -3.025,0 -5.5,-0.45 -5.5,-1 z m -148,-7.67429 c 0,-0.92086 3.15,-4.9229 7,-8.89342 7.7005,-7.94156 8.87272,-11.55957 5,-15.43229 -3.42994,-3.42994 -7.9111,-2.00617 -9.50649,3.02044 -0.35063,1.10473 -1.0551,1.75051 -1.56551,1.43506 -1.70826,-1.05576 -0.95246,-4.52195 1.52655,-7.00095 5.55595,-5.55596 15.54545,-1.0155 15.54545,7.06576 0,3.16482 -0.90107,4.60749 -6.5,10.40698 -3.575,3.70306 -6.5,7.03431 -6.5,7.40277 0,0.36847 2.925,0.66994 6.5,0.66994 5.11111,0 6.5,0.32051 6.5,1.5 0,1.22222 -1.66667,1.5 -9,1.5 -7.74972,0 -9,-0.23259 -9,-1.67429 z m 67,0.20924 c 0,-0.80578 1.35,-7.79651 3,-15.53495 1.65,-7.73844 3,-14.27917 3,-14.53495 0,-0.25578 0.675,-0.46505 1.5,-0.46505 2.08987,0 1.91773,2.02709 -1.5,17.66398 -1.65,7.54911 -3,13.86299 -3,14.03084 0,0.16785 -0.675,0.30518 -1.5,0.30518 -0.825,0 -1.5,-0.65927 -1.5,-1.46505 z m 72,0 c 0,-0.80578 1.35,-7.79651 3,-15.53495 1.65,-7.73844 3,-14.27917 3,-14.53495 0,-0.25578 0.675,-0.46505 1.5,-0.46505 2.08987,0 1.91773,2.02709 -1.5,17.66398 -1.65,7.54911 -3,13.86299 -3,14.03084 0,0.16785 -0.675,0.30518 -1.5,0.30518 -0.825,0 -1.5,-0.65927 -1.5,-1.46505 z m -97.72683,-4.53495 c 0.29509,-2.2 0.33612,-4 0.0912,-4 -0.24493,0 -1.77158,0.98053 -3.39254,2.17897 -1.62097,1.19843 -3.28954,1.83663 -3.70794,1.41823 -0.7262,-0.7262 0.36509,-1.77052 4.38736,-4.19852 1.66304,-1.00388 1.53799,-1.24947 -1.41338,-2.77568 -3.32729,-1.72061 -4.30411,-3.623 -1.86029,-3.623 0.75765,0 1.93775,0.675 2.62244,1.5 2.20024,2.65112 3.62826,1.75576 3.18979,-2 -0.30808,-2.63898 -0.0361,-3.5 1.10565,-3.5 1.20018,0 1.39799,0.86674 0.95373,4.17894 l -0.56051,4.17894 3.06004,-2.17894 c 1.683,-1.19842 3.55305,-2.17894 4.15565,-2.17894 2.12852,0 1.05754,1.96834 -1.90437,3.5 -1.65,0.85325 -3,1.75325 -3,2 0,0.24675 1.35,1.14675 3,2 2.96191,1.53166 4.03289,3.5 1.90437,3.5 -0.6026,0 -2.47265,-0.98052 -4.15567,-2.17894 l -3.06004,-2.17894 0.56051,4.17894 c 0.44736,3.33528 0.25032,4.17894 -0.976,4.17894 -1.21535,0 -1.42437,-0.83608 -1,-4 z m 71,0 c 0.29509,-2.2 0.33612,-4 0.0912,-4 -0.24493,0 -1.77158,0.98053 -3.39254,2.17897 -1.62097,1.19843 -3.28954,1.83663 -3.70794,1.41823 -0.7262,-0.7262 0.36509,-1.77052 4.38736,-4.19852 1.66304,-1.00388 1.53799,-1.24947 -1.41338,-2.77568 -3.32729,-1.72061 -4.30411,-3.623 -1.86029,-3.623 0.75765,0 1.93775,0.675 2.62244,1.5 2.20024,2.65112 3.62826,1.75576 3.18979,-2 -0.30808,-2.63898 -0.0361,-3.5 1.10565,-3.5 1.20018,0 1.39799,0.86674 0.95373,4.17894 l -0.56051,4.17894 3.06004,-2.17894 c 1.683,-1.19842 3.55305,-2.17894 4.15565,-2.17894 2.12852,0 1.05754,1.96834 -1.90437,3.5 -1.65,0.85325 -3,1.75325 -3,2 0,0.24675 1.35,1.14675 3,2 2.96191,1.53166 4.03289,3.5 1.90437,3.5 -0.6026,0 -2.47265,-0.98052 -4.15567,-2.17894 l -3.06004,-2.17894 0.56051,4.17894 c 0.44736,3.33528 0.25032,4.17894 -0.976,4.17894 -1.21535,0 -1.42437,-0.83608 -1,-4 z M 207.65805,606.95037 c 0,-0.71049 1.98736,-3.24224 4.41635,-5.62611 5.29639,-5.19802 6.11081,-7.55494 3.50944,-10.15631 -2.52261,-2.52261 -3.38236,-2.43211 -5.77349,0.60772 -2.22067,2.82312 -3.87236,1.68045 -2.16968,-1.50104 1.47903,-2.76359 5.77392,-3.67787 8.94809,-1.90481 1.88612,1.05356 2.64974,2.38905 2.87183,5.02252 0.26835,3.18192 -0.22789,4.05425 -4.39079,7.71858 l -4.69333,4.13124 4.64079,0 c 3.45848,0 4.64079,0.38215 4.64079,1.5 0,1.16667 -1.33333,1.5 -6,1.5 -4.23686,0 -6,-0.3796 -6,-1.29179 z m -85.41111,-8.78494 c -5.77685,-6.8654 -1.61092,-17.92327 6.7524,-17.92327 4.80725,0 6.65871,0.87369 6.65871,3.14217 0,1.59647 -0.33277,1.75011 -1.93426,0.89301 -6.76185,-3.61883 -13.08684,2.67124 -10.05243,9.99695 1.45247,3.50657 5.04184,4.76299 9.16305,3.2074 2.44935,-0.92452 2.82364,-0.82639 2.82364,0.74035 0,2.19023 -1.92156,3.02012 -6.99289,3.02012 -3.04839,0 -4.35729,-0.62745 -6.41822,-3.07673 z m 20.71246,1.30449 c -7.5037,-5.89663 -3.25405,-19.22776 6.12935,-19.22776 9.03705,0 12.82412,14.20598 5.20898,19.53983 -2.81045,1.96851 -8.6404,1.80805 -11.33833,-0.31207 z m 10.14195,-3.45027 c 2.03952,-2.91182 1.98806,-8.64336 -0.0983,-10.94875 -2.31166,-2.55435 -6.86631,-2.35028 -8.78831,0.39377 -3.52328,5.03017 -0.82919,12.77749 4.44329,12.77749 1.8493,0 3.44599,-0.79865 4.4433,-2.22251 z m 9.09505,3.87421 c -2.77489,-2.02905 -1.17162,-3.717 2.28962,-2.41053 1.55062,0.58529 4.05358,0.75439 5.56212,0.37577 3.97388,-0.99738 2.98009,-3.82452 -1.90375,-5.41577 -2.19249,-0.71436 -4.60509,-1.91168 -5.36134,-2.66071 -1.95496,-1.93632 -1.70202,-6.64537 0.44113,-8.21247 3.13149,-2.2898 11.43387,-1.49699 11.43387,1.09184 0,0.78071 -1.67467,1.1837 -4.75,1.14301 -4.07884,-0.054 -4.75,0.21522 -4.75,1.90512 0,1.40307 1.03586,2.2642 3.60876,3 1.98481,0.56762 4.34731,1.64964 5.25,2.40448 2.18712,1.82893 2.08562,6.41542 -0.1875,8.47257 -2.22112,2.01009 -9.05691,2.19031 -11.63291,0.30669 z m 25.91381,-0.3424 c -2.2829,-2.2829 -1.56531,-14.04803 1.23873,-20.3093 2.51044,-5.6057 6.85587,-10 9.88877,-10 7.7853,0 6.92666,18.37538 -1.30818,27.99594 -3.7474,4.37799 -6.99061,5.14207 -9.81932,2.31336 z m 8.21111,-3.82042 c 1.20452,-2.19388 2.49682,-5.22638 2.87179,-6.73888 0.6678,-2.69369 0.58958,-2.75 -3.81966,-2.75 -3.18222,0 -4.67931,0.46357 -5.10841,1.58179 -0.83578,2.17801 -0.76583,10.92604 0.0942,11.78611 1.48951,1.48951 3.86203,-0.0541 5.96204,-3.87902 z m 4.88347,-13.81909 c 0.32167,-1.28162 0.44274,-4.31912 0.26905,-6.75 -0.25952,-3.63231 -0.66866,-4.41979 -2.29628,-4.41979 -2.08583,0 -5.78818,5.64178 -7.05457,10.75 -0.66925,2.69956 -0.59758,2.75 3.9076,2.75 3.97215,0 4.66801,-0.31338 5.1742,-2.33021 z m 472.45326,17.33021 c 0,-1.33333 0.66667,-2 2,-2 1.33333,0 2,0.66667 2,2 0,1.33333 -0.66667,2 -2,2 -1.33333,0 -2,-0.66667 -2,-2 z m 60.49703,-0.25 c 0.29432,-1.2375 1.80437,-8.325 3.35566,-15.75 l 2.82053,-13.5 8.24708,0 c 8.05058,0 8.31657,0.0778 11.16339,3.26578 5.19873,5.8217 3.47731,16.5955 -3.74211,23.4206 -3.96191,3.74552 -7.38474,4.81362 -15.42573,4.81362 -6.7034,0 -6.93467,-0.0811 -6.41882,-2.25 z m 17.16602,-2.85077 c 7.0712,-4.37025 9.83177,-16.49532 4.8824,-21.44468 -1.95741,-1.95742 -3.47643,-2.45455 -7.5,-2.45455 -2.775,0 -5.04545,0.189 -5.04545,0.42 0,0.231 -1.125,5.62335 -2.5,11.98301 -1.375,6.35966 -2.5,12.02066 -2.5,12.58001 0,1.90099 9.09276,1.12277 12.66305,-1.08379 z m -488.16305,-1.89923 c -0.40157,-0.64976 4.65628,-1 14.44098,-1 9.37268,0 15.05902,0.3776 15.05902,1 0,0.6205 -5.48033,1 -14.44098,1 -8.54864,0 -14.69316,-0.40803 -15.05902,-1 z m 422,0 c -0.40157,-0.64976 4.65628,-1 14.44098,-1 9.37268,0 15.05902,0.3776 15.05902,1 0,0.6205 -5.48033,1 -14.44098,1 -8.54864,0 -14.69316,-0.40803 -15.05902,-1 z m -267.67127,-4.74993 c 43.6308,-0.14418 114.7308,-0.14417 158,4e-5 43.2692,0.1442 7.57127,0.26216 -79.32873,0.26214 -86.9,-2e-5 -122.30207,-0.118 -78.67127,-0.26218 z m -154.32873,-4.25007 c 0.36586,-0.59197 6.51038,-1 15.05902,-1 8.96065,0 14.44098,0.3795 14.44098,1 0,0.6224 -5.68634,1 -15.05902,1 -9.7847,0 -14.84255,-0.35024 -14.44098,-1 z m 422,0 c 0.36586,-0.59197 6.51038,-1 15.05902,-1 8.96065,0 14.44098,0.3795 14.44098,1 0,0.6224 -5.68634,1 -15.05902,1 -9.7847,0 -14.84255,-0.35024 -14.44098,-1 z m -11.5,-2.5 c 0,-0.83333 0.88889,-1.5 2,-1.5 1.11111,0 2,0.66667 2,1.5 0,0.83333 -0.88889,1.5 -2,1.5 -1.11111,0 -2,-0.66667 -2,-1.5 z m -324,-1.79327 c 0,-0.7113 2.25,-3.41685 5,-6.01235 5.38641,-5.08378 6.09119,-7.39689 3.08319,-10.1191 -1.52918,-1.38388 -2.3381,-1.50923 -4,-0.6198 -1.14576,0.61319 -2.08319,1.80061 -2.08319,2.63872 0,0.83811 -0.45,1.24572 -1,0.9058 -3.26271,-2.01647 2.16383,-7.17767 6.42279,-6.10874 7.0436,1.76784 7.38144,7.16156 0.82721,13.2065 l -4.75,4.38091 4.75,0.0107 c 3.55082,0.008 4.75,0.38936 4.75,1.51067 0,1.17949 -1.38889,1.5 -6.5,1.5 -4.64932,0 -6.5,-0.36822 -6.5,-1.29327 z m 89,0.29327 c 0,-0.55 0.9,-1 2,-1 1.82222,0 2,-0.66667 2,-7.5 0,-6.83333 -0.17778,-7.5 -2,-7.5 -1.1,0 -2,-0.45 -2,-1 0,-0.55 0.87344,-1 1.94098,-1 1.06754,0 2.2191,-0.45 2.55902,-1 1.71726,-2.77858 2.5,-0.11725 2.5,8.5 0,8.83333 0.14035,9.5 2,9.5 1.1,0 2,0.45 2,1 0,0.55 -2.475,1 -5.5,1 -3.025,0 -5.5,-0.45 -5.5,-1 z m 98.47742,-1.39411 c -3.34604,-5.10671 1.75023,-11.96923 8.46927,-11.40453 1.95432,0.16425 3.42081,0.74864 3.25887,1.29864 -0.16194,0.55 -1.59905,0.86211 -3.19358,0.69358 -1.89946,-0.20075 -3.60825,0.40269 -4.95556,1.75 -4.06447,4.06447 -1.63148,8.78091 3.90262,7.56542 3.16085,-0.69424 4.31033,0.78992 1.45917,1.88401 -3.55822,1.36542 -7.37505,0.6025 -8.94079,-1.78712 z m 98.27258,1.31401 c -2.72082,-1.58473 -2.29378,-7.46703 0.76407,-10.52488 1.94469,-1.94468 3.34268,-2.44397 6.1727,-2.20455 2.01225,0.17024 3.84208,0.86801 4.06629,1.5506 0.29318,0.89256 -0.46498,1.06655 -2.69984,0.61957 -3.90194,-0.78038 -7.05322,1.77834 -7.05322,5.72696 0,3.06239 2.54405,4.50928 6,3.4124 2.35165,-0.74639 2.73809,1.00279 0.41821,1.89301 -2.3285,0.89353 -5.67648,0.68697 -7.66821,-0.47311 z m -121.75,-2.35348 c 0,-0.81285 1.16956,-1.57058 2.7011,-1.75 1.78207,-0.20876 3.32239,-1.38438 4.52712,-3.45525 1.77569,-3.0523 1.77015,-3.38968 -0.2011,-12.23941 -2.44885,-10.99393 -2.44026,-10.12176 -0.0998,-10.12176 1.62413,0 2.11754,1.17916 3.13653,7.49586 l 1.20921,7.49585 4.3879,-7.49585 c 3.0739,-5.25114 4.96987,-7.49586 6.33128,-7.49586 1.62922,0 0.71634,2.06108 -5.64717,12.75 -4.1748,7.0125 -8.48517,13.5375 -9.57859,14.5 -2.41781,2.1283 -6.76648,2.33166 -6.76648,0.31642 z m -117,-11.52261 0,-6.95619 -7.25,-0.34511 -7.25,-0.34512 7.25,-0.19869 7.25,-0.1987 0,-7 c 0,-8.96425 1.81356,-9.16993 2.20431,-0.25 l 0.29569,6.75 7,0.57341 7,0.57342 -7.25,0.17658 -7.25,0.17659 0,7 c 0,4 -0.42857,7 -1,7 -0.57083,0 -1,-2.9854 -1,-6.95619 z m -55,2.49114 c 0,-0.80578 1.35,-7.79651 3,-15.53495 1.65,-7.73844 3,-14.27917 3,-14.53495 0,-0.25578 0.675,-0.46505 1.5,-0.46505 2.08987,0 1.91773,2.02709 -1.5,17.66398 -1.65,7.54911 -3,13.86299 -3,14.03084 0,0.16785 -0.675,0.30518 -1.5,0.30518 -0.825,0 -1.5,-0.65927 -1.5,-1.46505 z m 87,0 c 0,-0.80578 1.35,-7.79651 3,-15.53495 1.65,-7.73844 3,-14.27917 3,-14.53495 0,-0.25578 0.675,-0.46505 1.5,-0.46505 2.08987,0 1.91773,2.02709 -1.5,17.66398 -1.65,7.54911 -3,13.86299 -3,14.03084 0,0.16785 -0.675,0.30518 -1.5,0.30518 -0.825,0 -1.5,-0.65927 -1.5,-1.46505 z m 184,0.69002 c 0,-0.42626 3.375,-4.1275 7.5,-8.22497 4.125,-4.09747 7.5,-7.79871 7.5,-8.22497 0,-0.42627 -2.25,-0.77503 -5,-0.77503 -2.75,0 -5,-0.45 -5,-1 0,-0.58333 3.33333,-1 8,-1 4.4,0 8,0.32754 8,0.72788 0,0.40033 -3.47694,4.22533 -7.72654,8.5 l -7.72654,7.77212 5.72654,0 c 4.42359,0 5.72654,0.34129 5.72654,1.5 0,1.21569 -1.61111,1.5 -8.5,1.5 -4.675,0 -8.5,-0.34876 -8.5,-0.77503 z m -141,-11.22497 c 0,-0.61728 5.16667,-1 13.5,-1 8.33333,0 13.5,0.38272 13.5,1 0,0.61728 -5.16667,1 -13.5,1 -8.33333,0 -13.5,-0.38272 -13.5,-1 z m 99,0 c 0,-0.61728 5.16667,-1 13.5,-1 8.33333,0 13.5,0.38272 13.5,1 0,0.61728 -5.16667,1 -13.5,1 -8.33333,0 -13.5,-0.38272 -13.5,-1 z m -216,-6.29179 c 0,-0.71049 1.98736,-3.24224 4.41635,-5.62611 5.29639,-5.19802 6.11081,-7.55494 3.50944,-10.15631 -2.52261,-2.52261 -3.38236,-2.43211 -5.77349,0.60772 -2.22067,2.82312 -3.87236,1.68045 -2.16968,-1.50104 1.47903,-2.76359 5.77392,-3.67787 8.94809,-1.90481 1.88612,1.05356 2.64974,2.38905 2.87183,5.02252 0.26835,3.18192 -0.22789,4.05425 -4.39079,7.71858 l -4.69333,4.13124 4.64079,0 c 3.45848,0 4.64079,0.38215 4.64079,1.5 0,1.16667 -1.33333,1.5 -6,1.5 -4.23686,0 -6,-0.3796 -6,-1.29179 z m 87,-10e-4 c 0,-0.7113 2.25,-3.41685 5,-6.01235 5.38641,-5.08378 6.09119,-7.39689 3.08319,-10.1191 -1.52918,-1.38388 -2.3381,-1.50923 -4,-0.6198 -1.14576,0.61319 -2.08319,1.80061 -2.08319,2.63872 0,0.83811 -0.45,1.24572 -1,0.9058 -3.26271,-2.01647 2.16383,-7.17767 6.42279,-6.10874 7.0436,1.76784 7.38144,7.16156 0.82721,13.2065 l -4.75,4.38091 4.75,0.0107 c 3.55082,0.008 4.75,0.38936 4.75,1.51067 0,1.17949 -1.38889,1.5 -6.5,1.5 -4.64932,0 -6.5,-0.36822 -6.5,-1.29327 z m 99,10e-4 c 0,-0.71049 1.98736,-3.24224 4.41635,-5.62611 5.29639,-5.19802 6.11081,-7.55494 3.50944,-10.15631 -2.52261,-2.52261 -3.38236,-2.43211 -5.77349,0.60772 -2.22067,2.82312 -3.87236,1.68045 -2.16968,-1.50104 1.47903,-2.76359 5.77392,-3.67787 8.94809,-1.90481 1.88612,1.05356 2.64974,2.38905 2.87183,5.02252 0.26835,3.18192 -0.22789,4.05425 -4.39079,7.71858 l -4.69333,4.13124 4.64079,0 c 3.45848,0 4.64079,0.38215 4.64079,1.5 0,1.16667 -1.33333,1.5 -6,1.5 -4.23686,0 -6,-0.3796 -6,-1.29179 z m 96,-10e-4 c 0,-0.7113 2.25,-3.41685 5,-6.01235 5.38641,-5.08378 6.09119,-7.39689 3.08319,-10.1191 -1.52918,-1.38388 -2.3381,-1.50923 -4,-0.6198 -1.14576,0.61319 -2.08319,1.80061 -2.08319,2.63872 0,0.83811 -0.45,1.24572 -1,0.9058 -3.26271,-2.01647 2.16383,-7.17767 6.42279,-6.10874 7.0436,1.76784 7.38144,7.16156 0.82721,13.2065 l -4.75,4.38091 4.75,0.0107 c 3.55082,0.008 4.75,0.38936 4.75,1.51067 0,1.17949 -1.38889,1.5 -6.5,1.5 -4.64932,0 -6.5,-0.36822 -6.5,-1.29327 z M 446.7051,463.30823 c -1.14903,-1.61366 -2.77587,-4.87616 -3.6152,-7.25 -1.73956,-4.91992 -2.01473,-18.51715 -0.48031,-23.7343 1.34966,-4.58893 5.73819,-11.08177 7.49021,-11.08177 1.02691,0 0.54452,1.68447 -1.76419,6.16052 -2.92089,5.6629 -3.17756,6.93512 -3.17756,15.75 0,10.48833 1.28829,15.49599 5.17483,20.11488 2.3777,2.82574 2.40183,2.9746 0.48216,2.9746 -1.11144,0 -2.96092,-1.32027 -4.10994,-2.93393 z m 273.25248,-2.80283 c 5.54201,-10.23223 4.84431,-27.63501 -1.46305,-36.49288 -2.98405,-4.19071 0.35999,-3.69039 3.58376,0.53618 7.36981,9.66232 6.76898,31.19697 -1.11342,39.90692 -3.50866,3.87703 -4.06501,1.69524 -1.00729,-3.95022 z m -225.26773,2.20105 c 0.0175,-0.53036 0.6925,-1.8378 1.5,-2.90542 2.01244,-2.66068 1.8405,-4.22825 -0.5318,-4.84862 -2.12048,-0.55452 -2.70732,-3.15507 -0.9562,-4.23732 2.2144,-1.36857 4.18176,1.80875 3.6366,5.87316 -0.45011,3.35585 -3.73941,8.87154 -3.6486,6.1182 z m -287.0318,-1.75608 c 0,-0.71049 1.98736,-3.24224 4.41635,-5.62611 5.29639,-5.19802 6.11081,-7.55494 3.50944,-10.15631 -2.52261,-2.52261 -3.38236,-2.43211 -5.77349,0.60771 -2.22067,2.82313 -3.87236,1.68046 -2.16968,-1.50103 1.47903,-2.7636 5.77392,-3.67787 8.94809,-1.90481 1.88612,1.05356 2.64974,2.38905 2.87183,5.02252 0.26835,3.18192 -0.22789,4.05425 -4.39079,7.71858 l -4.69333,4.13124 4.64079,0 c 3.45848,0 4.64079,0.38215 4.64079,1.5 0,1.16667 -1.33333,1.5 -6,1.5 -4.23686,0 -6,-0.3796 -6,-1.29179 z m 349.42708,-11.98165 c -3.62842,-8.21963 -4.33779,-9.2011 -6.5,-8.99328 -2.37827,0.22859 -2.36675,0.18344 0.57292,-2.24503 1.65,-1.36307 3.25618,-2.48055 3.56928,-2.48328 0.31311,-0.003 2.07247,3.48253 3.90971,7.74503 1.83723,4.2625 3.71024,8.16919 4.16224,8.68153 0.45924,0.52054 5.00749,-7.75186 10.30895,-18.75 l 9.48712,-19.68153 66.03135,0 c 43.35423,0 66.03135,0.34343 66.03135,1 0,0.65646 -22.44358,1 -65.33075,1 l -65.33075,0 -10.3385,21.5 c -5.68617,11.825 -10.82483,21.48945 -11.41925,21.47656 -0.59441,-0.0129 -2.91356,-4.17538 -5.15367,-9.25 z m -368.97492,4.58274 c -2.2829,-2.2829 -1.56531,-14.04803 1.23873,-20.3093 2.51044,-5.6057 6.85587,-10 9.88877,-10 7.7853,0 6.92666,18.37538 -1.30818,27.99594 -3.7474,4.37799 -6.99061,5.14207 -9.81932,2.31336 z m 8.21111,-3.82042 c 1.20452,-2.19388 2.49682,-5.22638 2.87179,-6.73888 0.6678,-2.69369 0.58958,-2.75 -3.81966,-2.75 -3.18222,0 -4.67931,0.46357 -5.10841,1.58179 -0.83578,2.17801 -0.76583,10.92604 0.0942,11.78611 1.48951,1.48951 3.86203,-0.0541 5.96204,-3.87902 z m 4.88347,-13.81909 c 0.32167,-1.28162 0.44274,-4.31912 0.26905,-6.75 -0.25952,-3.63231 -0.66866,-4.41979 -2.29628,-4.41979 -2.08583,0 -5.78818,5.64177 -7.05457,10.75 -0.66925,2.69956 -0.59758,2.75 3.9076,2.75 3.97215,0 4.66801,-0.31338 5.1742,-2.33021 z m 135.10756,18.65117 c -1.31325,-1.31325 -0.60731,-6.05351 1.13654,-7.63167 0.98496,-0.89138 4.16072,-2.12894 7.05724,-2.75013 4.87946,-1.04646 5.24383,-1.32451 4.95916,-3.7843 -0.23666,-2.04501 -0.92758,-2.72645 -3.00779,-2.96651 -1.4853,-0.17141 -3.6228,0.18192 -4.75,0.78518 -1.64255,0.87907 -2.04945,0.79903 -2.04945,-0.40316 0,-3.71397 9.45457,-4.93553 12.46381,-1.61036 1.83944,2.03256 1.80881,2.77804 -0.57827,14.07237 l -0.95793,4.53238 -6.80951,0.20525 c -3.74523,0.11289 -7.10394,-0.0892 -7.4638,-0.44905 z m 10.51696,-3.97595 c 3.1824,-2.88003 2.34604,-4.69064 -1.85201,-4.00939 -4.07405,0.66113 -6.92439,2.87622 -5.87856,4.56842 1.0205,1.6512 5.65893,1.31578 7.73057,-0.55903 z m 13.26836,3.35823 c -0.27369,-0.71322 0.19043,-4.56764 1.03138,-8.56538 1.85161,-8.80226 1.84924,-8.13786 0.029,-8.13786 -0.825,0 -1.5,-0.45 -1.5,-1 0,-0.55 0.69841,-1 1.55202,-1 0.85361,0 2.02263,-1.35 2.59782,-3 1.35474,-3.8862 4.11893,-4.07441 3.67173,-0.25 -0.27506,2.35226 0.0762,2.79576 2.42843,3.06642 3.78724,0.43577 3.46075,1.9883 -0.49844,2.37022 -3.00607,0.28998 -3.33467,0.68643 -4.40401,5.31336 -0.63556,2.75 -1.19876,6.06875 -1.25155,7.375 -0.0856,2.11841 0.22811,2.31018 2.904,1.775 2.16375,-0.43275 3,-0.21867 3,0.76801 0,2.61443 -8.60635,3.7714 -9.56038,1.28523 z m 14.21468,0.61772 c -1.31325,-1.31325 -0.60731,-6.05351 1.13654,-7.63167 0.98496,-0.89138 4.16072,-2.12894 7.05724,-2.75013 4.87946,-1.04646 5.24383,-1.32451 4.95916,-3.7843 -0.23666,-2.04501 -0.92758,-2.72645 -3.00779,-2.96651 -1.4853,-0.17141 -3.6228,0.18192 -4.75,0.78518 -1.64255,0.87907 -2.04945,0.79903 -2.04945,-0.40316 0,-3.71397 9.45457,-4.93553 12.46381,-1.61036 1.83944,2.03256 1.80881,2.77804 -0.57827,14.07237 l -0.95793,4.53238 -6.80951,0.20525 c -3.74523,0.11289 -7.10394,-0.0892 -7.4638,-0.44905 z m 10.51696,-3.97595 c 3.1824,-2.88003 2.34604,-4.69064 -1.85201,-4.00939 -4.07405,0.66113 -6.92439,2.87622 -5.87856,4.56842 1.0205,1.6512 5.65893,1.31578 7.73057,-0.55903 z m 10.82874,3.49125 c 0,-0.64005 0.7721,-5.19144 1.71578,-10.11418 1.64186,-8.56484 3.47254,-11.65344 5.22579,-8.81663 0.57048,0.92306 1.33125,0.92737 3.32533,0.0188 1.42209,-0.64795 3.7438,-0.8874 5.15936,-0.53212 2.20108,0.55244 2.56742,1.18619 2.53011,4.37692 -0.0811,6.93766 -2.39746,15.69221 -4.24611,16.04823 -2.0853,0.40159 -2.09111,0.12395 -0.18688,-8.92844 1.22475,-5.82226 1.27376,-7.40033 0.25,-8.05006 -3.84455,-2.43996 -7.27144,0.79703 -8.88322,8.39098 -0.49849,2.34863 -1.13627,5.28274 -1.4173,6.52024 -0.5197,2.28845 -3.47286,3.21216 -3.47286,1.08626 z m 22,-0.51055 c 0,-0.92086 3.15,-4.9229 7,-8.89342 7.7005,-7.94156 8.87272,-11.55957 5,-15.43229 -3.42994,-3.42994 -7.9111,-2.00617 -9.50649,3.02044 -0.35063,1.10473 -1.0551,1.75051 -1.56551,1.43506 -1.70826,-1.05576 -0.95246,-4.52195 1.52655,-7.00096 5.55595,-5.55594 15.54545,-1.01549 15.54545,7.06577 0,3.16482 -0.90107,4.60749 -6.5,10.40698 -3.575,3.70306 -6.5,7.0343 -6.5,7.40277 0,0.36847 2.925,0.66994 6.5,0.66994 5.11111,0 6.5,0.32051 6.5,1.5 0,1.22222 -1.66667,1.5 -9,1.5 -7.74972,0 -9,-0.23259 -9,-1.67429 z m 41.49703,-0.57571 c 0.29432,-1.2375 1.80437,-8.325 3.35566,-15.75 l 2.82053,-13.5 8.24708,0 c 8.05058,0 8.31657,0.0778 11.16339,3.26578 5.19873,5.8217 3.47731,16.59549 -3.74211,23.4206 -3.96191,3.74552 -7.38474,4.81362 -15.42573,4.81362 -6.7034,0 -6.93467,-0.0811 -6.41882,-2.25 z m 17.16602,-2.85077 c 7.0712,-4.37025 9.83177,-16.49532 4.8824,-21.44469 -1.95741,-1.95741 -3.47643,-2.45454 -7.5,-2.45454 -2.775,0 -5.04545,0.189 -5.04545,0.42 0,0.231 -1.125,5.62335 -2.5,11.98301 -1.375,6.35966 -2.5,12.02067 -2.5,12.58001 0,1.90099 9.09276,1.12277 12.66305,-1.08379 z m 35.83695,4.10077 c -0.3912,-0.63298 2.15628,-1 6.94098,-1 l 7.55902,0 0,-6 0,-6 -6.94098,0 c -9.42944,0 -10.12689,-1.83004 -0.84057,-2.20555 l 7.28155,-0.29445 0.29445,-7.28155 c 0.37551,-9.28632 2.20555,-8.58887 2.20555,0.84057 l 0,6.94098 7.05902,0 c 4.45136,0 6.83071,0.36941 6.44098,1 -0.33992,0.55 -3.51648,1 -7.05902,1 l -6.44098,0 0,6 0,6 7,0 c 4,0 7,0.42857 7,1 0,0.62205 -5.64699,1 -14.94098,1 -8.88197,0 -15.19162,-0.40553 -15.55902,-1 z m 74.5,-0.5 c 0,-1 1,-1.5 3,-1.5 l 3,0 0,-11.57945 0,-11.57946 -3,0.65891 c -2.34519,0.51509 -3,0.31416 -3,-0.92055 0,-0.86869 0.69735,-1.57945 1.54966,-1.57945 0.85231,0 2.87731,-0.68656 4.5,-1.52568 l 2.95034,-1.52568 0,14.02568 0,14.02568 3,0 c 2,0 3,0.5 3,1.5 0,1.2 -1.5,1.5 -7.5,1.5 -6,0 -7.5,-0.3 -7.5,-1.5 z m 78.49703,-0.75 c 0.29432,-1.2375 1.80437,-8.325 3.35566,-15.75 l 2.82053,-13.5 8.24708,0 c 8.05058,0 8.31657,0.0778 11.16339,3.26578 5.19873,5.8217 3.47731,16.59549 -3.74211,23.4206 -3.96191,3.74552 -7.38474,4.81362 -15.42573,4.81362 -6.7034,0 -6.93467,-0.0811 -6.41882,-2.25 z m 17.16602,-2.85077 c 7.0712,-4.37025 9.83177,-16.49532 4.8824,-21.44469 -1.95741,-1.95741 -3.47643,-2.45454 -7.5,-2.45454 -2.775,0 -5.04545,0.189 -5.04545,0.42 0,0.231 -1.125,5.62335 -2.5,11.98301 -1.375,6.35966 -2.5,12.02067 -2.5,12.58001 0,1.90099 9.09276,1.12277 12.66305,-1.08379 z m -419.16305,-1.89923 c -0.40157,-0.64976 4.65628,-1 14.44098,-1 9.37268,0 15.05902,0.3776 15.05902,1 0,0.6205 -5.48033,1 -14.44098,1 -8.54864,0 -14.69316,-0.40803 -15.05902,-1 z m 356.5,-5 c 0,-0.61728 5.16667,-1 13.5,-1 8.33333,0 13.5,0.38272 13.5,1 0,0.61728 -5.16667,1 -13.5,1 -8.33333,0 -13.5,-0.38272 -13.5,-1 z m 78,-2.29327 c 0,-0.7113 2.25,-3.41685 5,-6.01235 5.38641,-5.08378 6.09119,-7.39689 3.08319,-10.1191 -1.52918,-1.38388 -2.3381,-1.50923 -4,-0.6198 -1.14576,0.61319 -2.08319,1.80061 -2.08319,2.63872 0,0.83811 -0.45,1.24572 -1,0.9058 -3.26271,-2.01647 2.16383,-7.17767 6.42279,-6.10874 7.0436,1.76783 7.38144,7.16156 0.82721,13.2065 l -4.75,4.38091 4.75,0.0107 c 3.55082,0.008 4.75,0.38936 4.75,1.51067 0,1.17948 -1.38889,1.5 -6.5,1.5 -4.64932,0 -6.5,-0.36822 -6.5,-1.29327 z m -434.5,-1.70673 c 0.36586,-0.59197 6.51038,-1 15.05902,-1 8.96065,0 14.44098,0.3795 14.44098,1 0,0.6224 -5.68634,1 -15.05902,1 -9.7847,0 -14.84255,-0.35024 -14.44098,-1 z"
       id="path3414"
       inkscape:connector-curvature="0" />
    <path
       style="fill:#000000;stroke:#000000;stroke-width:2;stroke-linecap:butt;stroke-linejoin:miter;stroke-opacity:1;stroke-miterlimit:4;stroke-dasharray:none"
       d="m 333.30752,589.71231 333.39316,0"
       id="path2983"
       inkscape:connector-curvature="0" />
  </g>
</svg>
