<?xml version="1.0" encoding="UTF-8" standalone="no"?>
<!-- Created with Inkscape (http://www.inkscape.org/) -->

<svg
   xmlns:dc="http://purl.org/dc/elements/1.1/"
   xmlns:cc="http://creativecommons.org/ns#"
   xmlns:rdf="http://www.w3.org/1999/02/22-rdf-syntax-ns#"
   xmlns:svg="http://www.w3.org/2000/svg"
   xmlns="http://www.w3.org/2000/svg"
   xmlns:sodipodi="http://sodipodi.sourceforge.net/DTD/sodipodi-0.dtd"
   xmlns:inkscape="http://www.inkscape.org/namespaces/inkscape"
   width="1052.3622"
   height="744.09448"
   id="svg2"
   version="1.1"
   inkscape:version="0.48.2 r9819"
   sodipodi:docname="winkelsumme.svg"
   inkscape:export-filename="/Users/Matze/Documents/Uni/UHD/3_Semester/robotik/website/winkelsumme.png"
   inkscape:export-xdpi="90"
   inkscape:export-ydpi="90">
  <defs
     id="defs4" />
  <sodipodi:namedview
     id="base"
     pagecolor="#ffffff"
     bordercolor="#666666"
     borderopacity="1.0"
     inkscape:pageopacity="0.0"
     inkscape:pageshadow="2"
     inkscape:zoom="0.35"
     inkscape:cx="350"
     inkscape:cy="520"
     inkscape:document-units="px"
     inkscape:current-layer="layer1"
     showgrid="false"
     inkscape:window-width="1457"
     inkscape:window-height="811"
     inkscape:window-x="1440"
     inkscape:window-y="22"
     inkscape:window-maximized="0" />
  <metadata
     id="metadata7">
    <rdf:RDF>
      <cc:Work
         rdf:about="">
        <dc:format>image/svg+xml</dc:format>
        <dc:type
           rdf:resource="http://purl.org/dc/dcmitype/StillImage" />
        <dc:title></dc:title>
      </cc:Work>
    </rdf:RDF>
  </metadata>
  <g
     inkscape:label="Ebene 1"
     inkscape:groupmode="layer"
     id="layer1"
     transform="translate(0,-308.2677)">
    <path
       style="fill:#000000"
       d="m 390.79752,578.51977 c -8.36723,-8.69509 -12.49457,-21.62649 -11.6896,-36.6248 0.55368,-10.31621 2.85878,-17.63425 7.98203,-25.34072 2.59558,-3.90431 6.58113,-7.83253 7.94684,-7.83253 1.12279,0 0.97472,0.30037 -2.15814,4.37789 -3.50394,4.56048 -6.21034,10.09871 -7.88945,16.14454 -1.10657,3.98436 -1.24779,5.81445 -1.23643,16.02438 0.0112,10.06147 0.1684,12.09793 1.23703,16.02436 1.63446,6.00546 5.14125,13.00018 8.25255,16.46069 1.39514,1.55172 2.53662,3.10043 2.53662,3.44154 0,1.47764 -2.03867,0.38274 -4.98145,-2.67535 z m 28.67519,0 c -8.36723,-8.69509 -12.49457,-21.62649 -11.6896,-36.6248 0.55368,-10.31621 2.85878,-17.63425 7.98202,-25.34072 2.59559,-3.90431 6.58114,-7.83253 7.94685,-7.83253 1.12279,0 0.97471,0.30037 -2.15813,4.37789 -3.50395,4.56048 -6.21035,10.09871 -7.88946,16.14454 -1.10657,3.98436 -1.24779,5.81445 -1.23643,16.02438 0.0112,10.06147 0.1684,12.09793 1.23703,16.02436 1.63446,6.00546 5.14125,13.00018 8.25256,16.46069 1.39513,1.55172 2.53662,3.10043 2.53662,3.44154 0,1.47764 -2.03867,0.38274 -4.98146,-2.67535 z m 244.50361,2.95648 c 0,-0.18649 1.13059,-1.59654 2.51235,-3.13343 6.91421,-7.69021 10.4196,-18.81729 10.4196,-33.07429 0,-14.42825 -3.66407,-25.85596 -10.77608,-33.60899 -1.21267,-1.32199 -2.05202,-2.65101 -1.86512,-2.95338 0.92115,-1.49046 6.32063,3.74135 10.05605,9.74379 9.65128,15.50859 9.19091,40.25376 -1.02915,55.31681 -2.24392,3.30726 -7.12084,8.04858 -8.27876,8.04858 -0.57136,0 -1.03889,-0.15259 -1.03889,-0.33909 z m 349.72488,0 c 0,-0.18649 1.1306,-1.59654 2.5123,-3.13343 6.9142,-7.69021 10.4196,-18.81729 10.4196,-33.07429 0,-14.42825 -3.6641,-25.85596 -10.776,-33.60899 -1.2127,-1.32199 -2.0521,-2.65101 -1.8651,-2.95338 0.9211,-1.49046 6.3205,3.74135 10.056,9.74379 9.6512,15.50859 9.1908,40.25376 -1.0292,55.31681 -2.2439,3.30726 -7.1208,8.04858 -8.2788,8.04858 -0.5713,0 -1.0388,-0.15259 -1.0388,-0.33909 z M 50.517772,575.45243 c -4.884645,-1.36892 -7.596145,-4.40792 -7.177559,-8.04447 0.218042,-1.89431 2.687706,-3.10384 4.289791,-2.10096 1.463934,0.9164 1.554517,3.92983 0.144592,4.81033 -1.610672,1.0059 -1.467851,1.39884 0.950249,2.61441 7.046867,3.54246 12.503265,0.61228 12.508155,-6.71707 0.0038,-5.40254 -2.836398,-8.35225 -8.056937,-8.36817 -3.541625,-0.0108 -3.289134,-1.2927 0.338214,-1.71705 4.166905,-0.48749 6.596305,-3.48115 6.596305,-8.1284 0,-3.69325 -1.737408,-5.34382 -5.624947,-5.34382 -4.084089,0 -7.770652,2.08154 -5.339095,3.01462 1.011303,0.38807 1.125729,3.22524 0.168684,4.18229 -0.867289,0.86729 -2.843626,0.86729 -3.710915,0 -0.96438,-0.96438 -0.832869,-3.90959 0.243183,-5.44587 3.195066,-4.5616 15.407838,-4.393 18.453163,0.25476 2.027765,3.09477 0.472872,8.37015 -3.179473,10.78715 l -2.187198,1.44742 2.678888,1.45426 c 4.717983,2.5612 6.413271,6.90086 4.473895,11.45241 -2.06154,4.83822 -9.372987,7.58461 -15.568995,5.84816 z M 469.99711,573.8312 c 0,-0.7693 0.63107,-0.9888 3.23298,-1.12451 l 3.23299,-0.16863 0.15053,-13.97987 c 0.14182,-13.17189 0.0931,-13.95763 -0.84339,-13.59485 -0.54665,0.21177 -2.19574,0.52882 -3.66464,0.70455 -2.15879,0.25828 -2.67073,0.15508 -2.67073,-0.53833 0,-0.59392 0.82176,-0.97773 2.67073,-1.24741 1.4689,-0.21425 3.77791,-1.00202 5.13115,-1.75061 1.35323,-0.7486 2.80413,-1.36109 3.22423,-1.36109 0.62203,0 0.79153,2.94845 0.91313,15.88381 l 0.14932,15.8838 3.23299,0.16863 c 2.60192,0.13571 3.23299,0.35521 3.23299,1.12451 0,0.85986 -0.90383,0.95589 -8.99614,0.95589 -8.09231,0 -8.99614,-0.0961 -8.99614,-0.95589 z m 346.91356,0.27795 c 0,-0.52749 3.38502,-4.38599 7.52234,-8.57445 8.66851,-8.77573 10.15096,-11.13975 9.78128,-15.59755 -0.55703,-6.71758 -7.53168,-9.49998 -13.01055,-5.19032 -1.73249,1.36277 -1.90949,2.52772 -0.44244,2.91137 1.26547,0.33092 1.76959,1.9842 1.1312,3.70984 -0.3956,1.06955 -0.8182,1.24982 -2.58678,1.10354 -2.06202,-0.17054 -2.11825,-0.23492 -2.28974,-2.62407 -0.58571,-8.15993 12.29344,-12.33568 19.23869,-6.23768 2.52314,2.21537 3.33881,4.39064 3.03226,8.08694 -0.33077,3.98897 -1.6513,5.67367 -9.6984,12.37291 -3.51665,2.92764 -6.55762,5.58792 -6.75779,5.91174 -0.55928,0.90493 12.89506,0.79228 13.62522,-0.11408 0.31138,-0.38656 0.74201,-1.52513 0.9569,-2.53017 0.2366,-1.10659 0.73409,-1.82734 1.26132,-1.82734 0.70935,0 0.7997,0.44247 0.48799,2.3896 -0.2104,1.31428 -0.53016,3.46492 -0.71053,4.7792 l -0.32797,2.3896 -10.6065,0 c -9.62182,0 -10.6065,-0.089 -10.6065,-0.95908 z m -84.22634,-4.77596 c -0.47814,-0.47816 -0.67471,-3.83585 -0.67471,-11.52631 l 0,-10.85159 -10.57547,0 c -8.14746,0 -10.82111,-0.17965 -11.64561,-0.78254 -0.90928,-0.66488 -0.95736,-0.91851 -0.31975,-1.68677 0.64226,-0.77388 2.32111,-0.90423 11.64561,-0.90423 l 10.89522,0 0,-10.8952 c 0,-9.32452 0.13033,-11.00339 0.90422,-11.64564 0.76827,-0.63761 1.02191,-0.58954 1.68678,0.31975 0.60279,0.82439 0.78255,3.49641 0.78255,11.63375 l 0,10.56356 11.0973,0.15246 c 10.34887,0.14216 11.11101,0.22374 11.3005,1.20958 0.11178,0.58144 -0.13798,1.27336 -0.55495,1.53761 -0.41697,0.26425 -5.50221,0.48433 -11.30051,0.48907 l -10.54234,0.009 0,10.43874 c 0,11.59867 -0.56035,14.07762 -2.69884,11.93916 z m 157.43241,0 c -0.47815,-0.47816 -0.67472,-3.83585 -0.67472,-11.52631 l 0,-10.85159 -10.57547,0 c -8.14746,0 -10.82111,-0.17965 -11.64561,-0.78254 -0.90927,-0.66488 -0.95735,-0.91851 -0.31975,-1.68677 0.64227,-0.77388 2.32111,-0.90423 11.64561,-0.90423 l 10.89522,0 0,-10.8952 c 0,-9.32452 0.13034,-11.00339 0.90423,-11.64564 0.76826,-0.63761 1.0219,-0.58954 1.68677,0.31975 0.6028,0.82439 0.78256,3.49641 0.78256,11.63375 l 0,10.56356 11.09729,0.15246 c 10.34888,0.14216 11.11102,0.22374 11.3005,1.20958 0.11178,0.58144 -0.13798,1.27336 -0.55495,1.53761 -0.41697,0.26425 -5.50221,0.48433 -11.3005,0.48907 l -10.54234,0.009 0,10.43874 c 0,11.59867 -0.56035,14.07762 -2.69884,11.93916 z m -704.49738,-4.42054 c -5.50627,-1.08514 -9.79761,-4.76231 -10.81329,-9.26568 -1.14573,-5.08003 3.17944,-8.14423 6.89294,-4.88334 2.23463,1.96227 0.45709,6.87458 -2.48762,6.87458 -1.21911,0 -1.21872,0.004 0.14057,1.46036 1.97249,2.11326 5.30058,3.65391 8.60364,3.98284 2.39108,0.23811 3.20909,0.0626 4.81761,-1.03389 3.05628,-2.08331 4.14224,-4.4845 4.41979,-9.77268 0.25931,-4.94031 -0.40402,-7.97432 -2.26935,-10.37987 -1.67129,-2.15533 -3.21332,-2.76966 -7.00662,-2.79136 -3.07915,-0.0176 -4.77557,-0.66585 -3.93703,-1.50438 0.1568,-0.15683 1.67473,-0.4737 3.37317,-0.70418 3.88886,-0.52774 5.67525,-1.69334 7.21423,-4.70726 1.65195,-3.23514 2.06645,-9.12065 0.8264,-11.73387 -1.94146,-4.09133 -6.95011,-5.04058 -12.18007,-2.30842 -3.16847,1.65522 -4.17815,2.9459 -2.30456,2.9459 1.68664,0 2.8983,1.52787 2.8983,3.65468 0,2.40237 -1.25516,3.65469 -3.66295,3.65469 -3.658,0 -4.73618,-3.94535 -2.2415,-8.2022 1.03405,-1.76449 2.21724,-2.79473 4.48244,-3.90298 2.73909,-1.34012 3.58941,-1.48321 7.7318,-1.30108 8.28808,0.36441 12.80701,3.82706 12.80701,9.81343 0,4.95617 -2.18793,8.70594 -6.58245,11.2813 l -2.56439,1.50284 2.73414,1.31954 c 6.79593,3.27986 10.10194,9.87716 8.00378,15.97196 -1.74699,5.07469 -5.4073,8.33682 -10.9844,9.78947 -3.52162,0.91726 -4.34624,0.94224 -7.91159,0.2396 z m 36.53193,-0.45228 c -7.2467,-2.54496 -10.85785,-10.30881 -10.86846,-23.36676 -0.008,-9.98852 2.66898,-17.19497 8.17793,-22.01406 3.65595,-3.19814 7.12633,-4.36072 12.16684,-4.07591 3.35441,0.18955 4.09839,0.43752 5.58457,1.86136 2.06122,1.97478 3.07202,5.18017 2.28571,7.24833 -1.04916,2.75949 -5.7787,2.49292 -6.32339,-0.3564 -0.39297,-2.05571 0.45274,-3.71309 2.10646,-4.12815 l 1.48115,-0.37174 -1.15384,-1.15383 c -0.81956,-0.81956 -2.0968,-1.22134 -4.40866,-1.38682 -2.95233,-0.21133 -3.51568,-0.058 -6.06155,1.64931 -3.83433,2.57145 -6.21086,7.30816 -7.07374,14.0987 -0.34293,2.69887 -0.52734,5.19555 -0.40979,5.5482 0.11754,0.35264 0.87701,-0.36113 1.68769,-1.58617 5.22961,-7.90246 18.39893,-3.79017 21.5201,6.71992 3.87609,13.05221 -6.99024,25.43023 -18.71102,21.31402 z m 8.79866,-2.73648 c 3.04884,-2.27629 3.74193,-4.7514 3.74193,-13.36294 0,-6.37445 -0.18331,-8.20645 -0.96376,-9.63199 -3.06024,-5.58974 -8.96972,-6.33497 -12.92918,-1.63048 -1.78623,2.12233 -2.69421,5.92394 -2.68027,11.22206 0.0215,8.17738 1.05135,10.94935 5.09861,13.72356 2.24588,1.53946 5.41777,1.4081 7.73267,-0.32021 z m 28.66155,3.02297 c -7.39398,-2.051 -10.89558,-8.56371 -11.53074,-21.44624 -0.68646,-13.92344 2.09344,-22.87077 8.26492,-26.60128 2.9189,-1.7644 3.33083,-1.85561 7.62553,-1.68841 3.86001,0.15028 4.89605,0.4125 6.91772,1.75083 1.30778,0.86575 3.13216,2.76337 4.05418,4.21695 2.76564,4.36003 3.43629,7.42187 3.74054,17.07771 0.38435,12.19738 -1.0766,18.47257 -5.39406,23.169 -3.01534,3.28002 -8.99684,4.81996 -13.67809,3.52144 z m 7.95932,-2.50704 c 4.35561,-3.22435 5.24364,-7.6875 4.9665,-24.96111 -0.1684,-10.49677 -0.36357,-12.89797 -1.20137,-14.78166 -1.99983,-4.49633 -5.67838,-6.83974 -9.52804,-6.0698 -2.51316,0.50263 -5.68274,3.95928 -6.63266,7.2334 -1.05205,3.62606 -1.11871,28.58737 -0.0857,32.0653 2.0378,6.86044 7.88839,9.91383 12.4812,6.51387 z m 329.9498,2.50493 c -3.05323,-0.84671 -4.14873,-1.6377 -5.26931,-3.80468 -2.45618,-4.74969 1.34942,-9.58 4.81625,-6.11315 1.95362,1.95362 1.09972,4.87566 -1.67531,5.73281 -1.38777,0.42865 1.94812,2.24431 4.69149,2.55353 3.17608,0.358 7.00517,-1.30916 8.99316,-3.91553 2.1811,-2.8596 3.74643,-7.94338 4.11572,-13.36695 l 0.32544,-4.7792 -1.74823,2.36942 c -2.15312,2.91827 -4.33204,4.09656 -7.57542,4.09656 -5.20416,0 -10.31509,-3.18225 -12.78075,-7.95777 -2.44999,-4.74517 -2.33738,-12.59188 0.24396,-16.99657 1.6798,-2.86636 4.85291,-5.79452 7.45948,-6.88362 2.38791,-0.99774 8.71575,-0.99493 11.04102,0.005 0.99513,0.42787 2.74561,1.7562 3.88998,2.95185 6.58714,6.88211 8.07437,23.90113 3.07516,35.18955 -3.66491,8.27559 -12.1305,12.99097 -19.60264,10.91885 z m 10.21343,-19.74887 c 3.88779,-2.01044 6.0106,-8.29857 5.3888,-15.96225 -0.46999,-5.79187 -1.50883,-8.52001 -4.11601,-10.80915 -1.79344,-1.57465 -2.28542,-1.72937 -4.74727,-1.49282 -5.1522,0.49506 -7.67691,4.33933 -8.15482,12.41696 -0.62844,10.62089 2.32089,16.64779 8.15955,16.67387 1.02039,0.005 2.58178,-0.36742 3.46975,-0.82661 z m 30.27751,19.75098 c -7.39398,-2.051 -10.89562,-8.56371 -11.53075,-21.44624 -0.68645,-13.92344 2.0934,-22.87077 8.26493,-26.60128 2.91891,-1.7644 3.33082,-1.85561 7.62552,-1.68841 3.86002,0.15028 4.89604,0.4125 6.91769,1.75083 1.30781,0.86575 3.13217,2.76337 4.05422,4.21695 2.76564,4.36003 3.43625,7.42187 3.74054,17.07771 0.3843,12.19738 -1.07662,18.47257 -5.39408,23.169 -3.01534,3.28002 -8.99682,4.81996 -13.67807,3.52144 z m 7.95933,-2.50704 c 4.35559,-3.22435 5.24362,-7.6875 4.96649,-24.96111 -0.16845,-10.49677 -0.36356,-12.89797 -1.20138,-14.78166 -1.99984,-4.49633 -5.67842,-6.83974 -9.52803,-6.0698 -2.51318,0.50263 -5.68275,3.95928 -6.63268,7.2334 -1.05205,3.62606 -1.11873,28.58737 -0.0857,32.0653 2.0378,6.86044 7.88838,9.91383 12.48124,6.51387 z m 301.27458,2.50493 c -3.05323,-0.84671 -4.14874,-1.6377 -5.26932,-3.80468 -2.45617,-4.74969 1.34942,-9.58 4.81625,-6.11315 1.95362,1.95362 1.09972,4.87566 -1.67531,5.73281 -1.38776,0.42865 1.94812,2.24431 4.69149,2.55353 3.17608,0.358 7.00518,-1.30916 8.99316,-3.91553 2.18112,-2.8596 3.74644,-7.94338 4.11571,-13.36695 l 0.32543,-4.7792 -1.74821,2.36942 c -2.1531,2.91827 -4.33202,4.09656 -7.57542,4.09656 -5.20415,0 -10.31508,-3.18225 -12.78075,-7.95777 -2.44999,-4.74517 -2.33736,-12.59188 0.24396,-16.99657 1.6798,-2.86636 4.85291,-5.79452 7.45949,-6.88362 2.38791,-0.99774 8.71574,-0.99493 11.04101,0.005 0.99514,0.42787 2.74562,1.7562 3.88999,2.95185 6.58718,6.88211 8.07438,23.90113 3.07519,35.18955 -3.66494,8.27559 -12.13054,12.99097 -19.60267,10.91885 z m 10.21342,-19.74887 c 3.8878,-2.01044 6.01057,-8.29857 5.3888,-15.96225 -0.46999,-5.79187 -1.50881,-8.52001 -4.11601,-10.80915 -1.79344,-1.57465 -2.28541,-1.72937 -4.74727,-1.49282 -5.1522,0.49506 -7.67691,4.33933 -8.15482,12.41696 -0.62844,10.62089 2.32089,16.64779 8.15955,16.67387 1.02039,0.005 2.58178,-0.36742 3.46975,-0.82661 z m 30.27753,19.75098 c -7.39398,-2.051 -10.89566,-8.56371 -11.53074,-21.44624 -0.68648,-13.92344 2.09341,-22.87077 8.26487,-26.60128 2.91897,-1.7644 3.33084,-1.85561 7.62556,-1.68841 3.86004,0.15028 4.89601,0.4125 6.91771,1.75083 1.30778,0.86575 3.13218,2.76337 4.05418,4.21695 2.7656,4.36003 3.4362,7.42187 3.7406,17.07771 0.3842,12.19738 -1.0767,18.47257 -5.3941,23.169 -3.01535,3.28002 -8.99681,4.81996 -13.67808,3.52144 z m 7.95936,-2.50704 c 4.35552,-3.22435 5.24362,-7.6875 4.96652,-24.96111 -0.1685,-10.49677 -0.3636,-12.89797 -1.20148,-14.78166 -1.99985,-4.49633 -5.67836,-6.83974 -9.528,-6.0698 -2.51317,0.50263 -5.68279,3.95928 -6.63271,7.2334 -1.05205,3.62606 -1.11865,28.58737 -0.0857,32.0653 2.03777,6.86044 7.88842,9.91383 12.48124,6.51387 z m -982.035341,1.07382 c -6.2016764,-3.78166 -6.5414886,-19.57954 -0.72186,-33.55893 6.912795,-16.60527 18.532784,-23.0718 23.972203,-13.34054 5.433288,9.72032 -0.112173,32.81454 -10.402444,43.32126 -4.46527,4.5592 -9.115327,5.85426 -12.847899,3.57821 z m 7.368448,-2.37315 c 1.101271,-0.96693 2.908126,-3.3036 4.015239,-5.1926 1.932089,-3.2966 5.829014,-13.83799 5.829014,-15.76779 0,-0.82506 -0.833976,-0.9115 -7.449927,-0.77217 l -7.449926,0.15688 -0.987163,3.93581 c -0.542935,2.1647 -1.141937,5.95994 -1.331113,8.43387 -0.727135,9.50905 2.475226,13.50706 7.373876,9.206 z m 10.970472,-24.24642 c 9.63e-4,-0.0773 0.506966,-2.74295 1.124516,-5.92365 1.81185,-9.33196 1.318216,-14.9731 -1.470113,-16.80008 -1.30655,-0.85608 -1.556596,-0.85692 -3.330195,-0.0112 -2.074698,0.98935 -4.615955,4.13792 -6.8094,8.43673 -1.446868,2.83562 -4.697491,12.27857 -4.697491,13.64604 0,0.64292 1.434009,0.79268 7.590485,0.79268 4.174769,0 7.591255,-0.0632 7.592198,-0.14057 z m 405.041811,26.61957 c -6.20168,-3.78166 -6.54149,-19.57954 -0.72186,-33.55893 6.9128,-16.60527 18.53278,-23.0718 23.9722,-13.34054 5.43329,9.72032 -0.11217,32.81454 -10.40244,43.32126 -4.46527,4.5592 -9.11533,5.85426 -12.8479,3.57821 z m 7.36845,-2.37315 c 1.10127,-0.96693 2.90812,-3.3036 4.01524,-5.1926 1.93209,-3.2966 5.82901,-13.83799 5.82901,-15.76779 0,-0.82506 -0.83397,-0.9115 -7.44992,-0.77217 l -7.44993,0.15688 -0.98716,3.93581 c -0.54294,2.1647 -1.14194,5.95994 -1.33112,8.43387 -0.72713,9.50905 2.47523,13.50706 7.37388,9.206 z m 10.97047,-24.24642 c 9.6e-4,-0.0773 0.50697,-2.74295 1.12452,-5.92365 1.81185,-9.33196 1.31821,-14.9731 -1.47012,-16.80008 -1.30655,-0.85608 -1.55659,-0.85692 -3.33019,-0.0112 -2.0747,0.98935 -4.61596,4.13792 -6.8094,8.43673 -1.44687,2.83562 -4.69749,12.27857 -4.69749,13.64604 0,0.64292 1.43401,0.79268 7.59048,0.79268 4.17477,0 7.59126,-0.0632 7.5922,-0.14057 z m 331.38592,26.61957 c -6.20165,-3.78166 -6.54148,-19.57954 -0.72182,-33.55893 6.91274,-16.60527 18.53278,-23.0718 23.97218,-13.34054 5.43327,9.72032 -0.11218,32.81454 -10.40247,43.32126 -4.46523,4.5592 -9.11533,5.85426 -12.84789,3.57821 z m 7.36846,-2.37315 c 1.10124,-0.96693 2.90812,-3.3036 4.01526,-5.1926 1.93209,-3.2966 5.82899,-13.83799 5.82899,-15.76779 0,-0.82506 -0.834,-0.9115 -7.44992,-0.77217 l -7.44994,0.15688 -0.98715,3.93581 c -0.54292,2.1647 -1.14195,5.95994 -1.3311,8.43387 -0.72716,9.50905 2.47524,13.50706 7.37386,9.206 z m 10.97045,-24.24642 c 0,-0.0773 0.50699,-2.74295 1.12452,-5.92365 1.81188,-9.33196 1.31822,-14.9731 -1.47008,-16.80008 -1.30657,-0.85608 -1.55661,-0.85692 -3.3302,-0.0112 -2.07468,0.98935 -4.61597,4.13792 -6.8094,8.43673 -1.44687,2.83562 -4.69751,12.27857 -4.69751,13.64604 0,0.64292 1.43399,0.79268 7.5905,0.79268 4.17476,0 7.59127,-0.0632 7.59217,-0.14057 z M 97.970734,552.82122 c -0.18598,-0.48465 -0.09935,-1.11998 0.192506,-1.41183 0.320706,-0.32071 9.97113,-0.47259 24.39235,-0.38391 l 23.86168,0.14676 0.17968,1.26508 0.17966,1.26508 -24.23386,0 c -21.48449,0 -24.272236,-0.1 -24.572016,-0.88118 z m 206.862906,-6.2383 c -1.00063,-0.40376 -0.87085,-2.25412 0.18656,-2.65989 1.16127,-0.44562 42.04066,-0.44562 43.20193,0 0.48916,0.1877 0.88937,0.79318 0.88937,1.3455 0,0.55231 -0.40021,1.15778 -0.88937,1.34548 -1.06168,0.40741 -42.37514,0.3778 -43.38849,-0.0311 z m 214.78279,0 c -1.00063,-0.40376 -0.87085,-2.25412 0.18656,-2.65989 1.16127,-0.44562 42.04066,-0.44562 43.20193,0 0.48916,0.1877 0.88938,0.79318 0.88938,1.3455 0,0.55231 -0.40022,1.15778 -0.88938,1.34548 -1.06168,0.40741 -42.37514,0.3778 -43.38849,-0.0311 z M 97.997887,538.83551 c -0.173593,-0.45237 -0.151762,-1.08764 0.04851,-1.41168 0.244714,-0.39597 8.294881,-0.58919 24.547171,-0.58919 l 24.18304,0 -0.17967,1.26509 -0.17968,1.26508 -24.05188,0.14661 c -20.68289,0.12607 -24.096078,0.0314 -24.367503,-0.67591 z"
       id="path3050"
       inkscape:connector-curvature="0" />
  </g>
</svg>
